<svg width="21" height="20" viewBox="0 0 21 20" fill="none" xmlns="http://www.w3.org/2000/svg">
<path d="M10.7626 0C5.25357 0 0.788574 4.465 0.788574 9.974C0.788574 14.38 3.64557 18.119 7.60957 19.439C8.10857 19.529 8.28857 19.222 8.28857 18.958C8.28857 18.721 8.28057 18.093 8.27757 17.262C5.50257 17.864 4.91657 15.924 4.91657 15.924C4.46457 14.772 3.80957 14.465 3.80957 14.465C2.90457 13.846 3.87857 13.86 3.87857 13.86C4.88057 13.93 5.40557 14.888 5.40557 14.888C6.29557 16.412 7.74157 15.972 8.30757 15.717C8.39857 15.072 8.65857 14.632 8.94257 14.383C6.72857 14.132 4.40057 13.276 4.40057 9.453C4.40057 8.366 4.78957 7.474 5.42457 6.778C5.32357 6.525 4.97857 5.51 5.52357 4.138C5.52357 4.138 6.36057 3.869 8.26557 5.159C9.06357 4.938 9.91457 4.827 10.7616 4.823C11.6106 4.827 12.4626 4.938 13.2576 5.159C15.1636 3.868 15.9996 4.138 15.9996 4.138C16.5446 5.51 16.2026 6.525 16.0986 6.778C16.7386 7.474 17.1226 8.365 17.1226 9.453C17.1226 13.286 14.7926 14.128 12.5706 14.375C12.9256 14.683 13.2456 15.291 13.2456 16.221C13.2456 17.555 13.2336 18.631 13.2336 18.958C13.2336 19.225 13.4116 19.535 13.9206 19.437C17.8826 18.115 20.7366 14.379 20.7366 9.974C20.7366 4.465 16.2716 0 10.7626 0Z" fill="#272727"/>
</svg>
