<svg width="19" height="19" viewBox="0 0 19 19" fill="none" xmlns="http://www.w3.org/2000/svg">
<path d="M17.9976 8.10276H9.67057V11.5538H14.4626C14.0166 13.7468 12.1496 15.0068 9.67057 15.0068C6.74757 15.0068 4.39157 12.6508 4.39157 9.72676C4.39157 6.80376 6.74757 4.44776 9.67057 4.44776C10.9296 4.44776 12.0676 4.89476 12.9606 5.62576L15.5606 3.02676C13.9766 1.64576 11.9456 0.793762 9.67057 0.793762C4.71657 0.793762 0.736572 4.77276 0.736572 9.72776C0.736572 14.6828 4.71557 18.6618 9.67057 18.6618C14.1376 18.6618 18.1996 15.4128 18.1996 9.72776C18.1996 9.19976 18.1186 8.63076 17.9976 8.10276Z" fill="#DB4437"/>
</svg>
