<svg width="20" height="17" viewBox="0 0 20 17" fill="none" xmlns="http://www.w3.org/2000/svg">
<path d="M17.7695 4.72477C17.7825 4.89977 17.7825 5.07377 17.7825 5.24777C17.7825 10.5728 13.7295 16.7088 6.32247 16.7088C4.04047 16.7088 1.92047 16.0478 0.136475 14.8998C0.460475 14.9368 0.772475 14.9498 1.10947 14.9498C2.99247 14.9498 4.72547 14.3138 6.11047 13.2288C4.33947 13.1918 2.85547 12.0318 2.34347 10.4358C2.59247 10.4728 2.84247 10.4978 3.10447 10.4978C3.46547 10.4978 3.82847 10.4478 4.16547 10.3608C2.31847 9.98677 0.935475 8.36576 0.935475 6.40776V6.35777C1.47247 6.65676 2.09547 6.84377 2.75547 6.86877C1.67047 6.14677 0.959475 4.91177 0.959475 3.51477C0.959475 2.76677 1.15847 2.08077 1.50747 1.48277C3.49047 3.92577 6.47147 5.52277 9.81347 5.69777C9.75147 5.39777 9.71347 5.08676 9.71347 4.77477C9.71347 2.55476 11.5095 0.746765 13.7415 0.746765C14.9015 0.746765 15.9485 1.23277 16.6845 2.01877C17.5945 1.84377 18.4665 1.50677 19.2405 1.04577C18.9415 1.98077 18.3045 2.76677 17.4695 3.26577C18.2805 3.17777 19.0665 2.95377 19.7885 2.64177C19.2405 3.43976 18.5555 4.15076 17.7695 4.72477Z" fill="#1DA1F2"/>
</svg>
