<svg width="27" height="27" viewBox="0 0 27 27" fill="none" xmlns="http://www.w3.org/2000/svg">
<path d="M24 24V3H3V24H24ZM24 0C24.7956 0 25.5587 0.31607 26.1213 0.87868C26.6839 1.44129 27 2.20435 27 3V24C27 24.7956 26.6839 25.5587 26.1213 26.1213C25.5587 26.6839 24.7956 27 24 27H3C2.20435 27 1.44129 26.6839 0.87868 26.1213C0.31607 25.5587 0 24.7956 0 24V3C0 2.20435 0.31607 1.44129 0.87868 0.87868C1.44129 0.31607 2.20435 0 3 0H24ZM20.55 9.525L19.05 11.025L15.975 7.95L17.475 6.45C17.79 6.12 18.315 6.12 18.63 6.45L20.55 8.37C20.88 8.685 20.88 9.21 20.55 9.525ZM6 17.91L15.09 8.82L18.18 11.91L9.09 21H6V17.91Z" fill="#544F5A"/>
</svg>
