<svg width="89" height="89" viewBox="0 0 89 89" fill="none" xmlns="http://www.w3.org/2000/svg">
<path d="M5.86963 27.8125V28.3125H5.87281V61.1875C5.87281 64.4814 7.1813 67.6404 9.51044 69.9695C11.8396 72.2987 14.9986 73.6072 18.2925 73.6072H70.723C74.0169 73.6072 77.1759 72.2987 79.505 69.9695C81.8341 67.6404 83.1426 64.4814 83.1426 61.1875V27.8125C83.1426 24.5186 81.8341 21.3596 79.505 19.0305C77.1759 16.7014 74.0169 15.3929 70.723 15.3929H18.2893C14.9954 15.3929 11.8364 16.7014 9.50726 19.0305C7.17812 21.3596 5.86963 24.5186 5.86963 27.8125ZM11.6407 61.1875V35.4643H77.3748V61.1875C77.3748 62.9517 76.674 64.6436 75.4265 65.891C74.1791 67.1385 72.4872 67.8393 70.723 67.8393H18.2893C16.5251 67.8393 14.8332 67.1385 13.5857 65.891C12.3869 64.6922 11.6929 63.0828 11.6407 61.3933V61.1875ZM58.0087 51.9465C57.2438 51.9465 56.5103 52.2503 55.9695 52.7911C55.4286 53.332 55.1248 54.0655 55.1248 54.8304C55.1248 55.5952 55.4286 56.3288 55.9695 56.8696C56.5103 57.4105 57.2438 57.7143 58.0087 57.7143H69.1337C69.8986 57.7143 70.6321 57.4105 71.173 56.8696C71.7138 56.3288 72.0176 55.5952 72.0176 54.8304C72.0176 54.0655 71.7138 53.332 71.173 52.7911C70.6321 52.2503 69.8986 51.9465 69.1337 51.9465H58.0087ZM13.5857 23.109C14.8332 21.8616 16.5251 21.1607 18.2893 21.1607H70.723C72.4872 21.1607 74.1791 21.8616 75.4265 23.109C76.674 24.3565 77.3748 26.0484 77.3748 27.8125V29.6965H11.6375V27.8125C11.6375 26.0484 12.3383 24.3565 13.5857 23.109Z" fill="white" stroke="white"/>
</svg>
