<svg width="154" height="40" viewBox="0 0 154 40" fill="none" xmlns="http://www.w3.org/2000/svg">
<path d="M14.4417 28.6743C20.3875 28.6743 25.2287 23.8107 25.2287 17.8375V10.8369C25.2287 4.86358 20.3875 0 14.4417 0C8.49597 0 3.65479 4.85925 3.65479 10.8369V17.8375C3.6591 23.8107 8.49597 28.6743 14.4417 28.6743ZM6.05812 18.9688H12.4613C12.8927 18.9688 13.2465 18.6134 13.2465 18.1799V18.1409C13.2465 17.7031 12.8927 17.352 12.4613 17.352H6.05812V16.303H12.4613C12.8927 16.303 13.2465 15.9519 13.2465 15.514V15.475C13.2465 15.0372 12.8927 14.6861 12.4613 14.6861H6.05812V13.6414H12.4613C12.8927 13.6414 13.2465 13.286 13.2465 12.8525V12.8135C13.2465 12.3757 12.8927 12.0246 12.4613 12.0246H6.05812V10.9799H12.4613C12.8927 10.9799 13.2465 10.6245 13.2465 10.191V10.1433C13.2465 9.70549 12.8927 9.35438 12.4613 9.35438H6.05812V9.15064C6.05812 5.21036 9.82061 2.00699 14.4417 2.00699C19.0629 2.00699 22.8254 5.2147 22.8254 9.15064V9.35438H16.3273C15.8915 9.35438 15.542 9.70549 15.542 10.1433V10.1823C15.542 10.6201 15.8958 10.9712 16.3273 10.9712H22.8254V12.0159H16.3273C15.8915 12.0159 15.542 12.3714 15.542 12.8048V12.8438C15.542 13.2773 15.8958 13.6328 16.3273 13.6328H22.8254V14.6774H16.3273C15.8915 14.6774 15.542 15.0329 15.542 15.4664V15.5054C15.542 15.9432 15.8958 16.2943 16.3273 16.2943H22.8254V17.3433H16.3273C15.8915 17.3433 15.542 17.6944 15.542 18.1322V18.1712C15.542 18.6091 15.8958 18.9602 16.3273 18.9602H22.8254V19.5107C22.8254 23.451 19.0629 26.6543 14.4417 26.6543C9.82061 26.6543 6.05812 23.4466 6.05812 19.5107V18.9688Z" fill="white"/>
<path d="M27.6836 16.1815C27.0235 16.1815 26.4884 16.719 26.4884 17.3822C26.4884 17.4733 26.5014 17.56 26.5187 17.6467C26.5143 18.0758 26.4841 18.4746 26.4496 18.9731C25.8153 25.5619 22.3678 27.92 19.4597 29.2291C17.8287 29.8533 16.1373 30.1914 14.4416 30.2261C12.7459 30.1914 11.0588 29.8576 9.43211 29.2291C6.51532 27.9157 3.06781 25.5619 2.42922 18.7694C2.40333 18.3922 2.36882 18.0064 2.36882 17.5946V17.5903C2.38176 17.521 2.39039 17.4516 2.39039 17.3779C2.39039 16.7147 1.85536 16.1772 1.19519 16.1772C0.535033 16.1815 0 16.719 0 17.3822C0 17.4733 0.0129443 17.56 0.0302035 17.6423C0.0517774 25.0634 5.66531 31.2014 12.8537 31.9947V37.2657C12.8494 37.3177 12.8365 37.3654 12.8365 37.4174C12.8365 38.3061 13.5527 39.03 14.4416 39.03C15.2959 39.03 15.9863 38.3581 16.038 37.5171V37.5085C16.038 37.4781 16.0467 37.4521 16.0467 37.4218C16.0467 37.3914 16.038 37.3611 16.038 37.3351V32.0033C23.2437 31.1971 28.8659 25.0374 28.8659 17.599V17.4906C28.8702 17.4559 28.8788 17.4213 28.8788 17.3822C28.8788 16.719 28.3438 16.1815 27.6836 16.1815Z" fill="white"/>
<path d="M43.135 11.8297V12.9611L44.067 13.1561C44.766 13.3512 45.1155 13.4682 45.3485 13.7803V25.8959C44.3777 26.5201 43.2558 26.8713 42.5568 26.8713C40.6583 26.8713 40.1923 25.5838 40.1923 20.911V11.2445L31.3125 11.8297V12.9611L32.2833 13.2342C32.9435 13.4292 33.0988 13.5072 33.3318 13.7803V22.1507C33.3318 24.7602 33.3707 26.7455 34.0308 28.15C34.8463 30.0183 36.5506 30.8766 38.721 30.8766C41.5126 30.8766 43.7606 29.1253 45.5427 26.7499L45.931 31.0326H46.164L54.6943 28.8132V28.5011L53.1065 27.9159C52.291 27.6038 52.2521 27.1747 52.2521 25.9696V11.2445L43.135 11.8297Z" fill="white"/>
<path d="M62.6723 27.4476V14.9072C63.3713 14.556 63.9926 14.4 64.5708 14.4C67.5566 14.4 68.7561 17.9458 68.7561 21.7604C68.7561 26.5893 67.5566 29.4719 65.7703 29.4719C64.8858 29.4719 63.7596 28.8477 62.6723 27.4476ZM61.9776 10.7762L53.3696 13.9709V14.361L55.0006 15.7264C55.6996 16.3116 55.8161 16.6584 55.8161 17.5947V37.1054C55.5443 37.4565 55.3113 37.5345 54.7288 37.6516L53.7968 37.8466V39.017H65.5459V37.8466L64.2256 37.5345C63.1771 37.2614 62.8708 37.1834 62.6766 36.8323V30.3302C63.6474 30.6813 64.6528 30.8764 65.6624 30.8764C72.7559 30.8764 76.0524 25.6963 76.0524 19.6971C76.0524 14.0879 73.1443 10.8932 68.6094 10.8932C66.3614 10.8932 63.9193 12.1806 62.4824 14.439L62.2451 10.6808L61.9776 10.7762Z" fill="white"/>
<path d="M79.4395 14.088L81.3897 15.7222C82.0887 16.3073 82.1664 16.6541 82.1664 17.5904V28.3059C81.8946 28.618 81.7004 28.7351 81.0791 28.8521L80.1859 29.0428V30.2089H90.8477V29.0428L90.1099 28.8868C89.4886 28.7697 89.2167 28.6527 89.0614 28.4186V16.0343C90.0711 15.332 91.1541 14.9029 91.9696 14.9029C93.9069 14.9029 94.2176 16.42 94.2176 21.2923V28.4186C94.0622 28.6527 93.7904 28.7697 93.1691 28.8868L92.4787 29.0428V30.2089H103.102V29.0428L102.209 28.8478C101.587 28.7307 101.354 28.6137 101.126 28.3016V20.9022C101.126 16.6975 101.009 15.0589 100.543 13.8539C99.7664 11.8686 98.0621 10.8933 96.047 10.8933C92.9836 10.8933 90.7744 12.5665 88.837 15.293L88.6429 10.6765L79.4395 14.088Z" fill="white"/>
<path d="M111.727 12.2197C113.004 12.2197 113.936 13.4681 113.936 16.5068C113.936 17.985 113.664 18.219 112.076 18.2971L108.702 18.4921C108.858 13.932 110.329 12.2197 111.727 12.2197ZM102.265 21.3314C102.265 27.8378 106.295 30.8721 111.533 30.8721C115.757 30.8721 118.704 28.4187 120.063 25.6531L119.947 25.4971C118.281 26.4334 116.033 26.6674 115.062 26.6674C111.459 26.6674 108.784 24.9552 108.702 19.5368L120.024 19.9659L120.218 19.6928V19.073C120.218 13.6199 116.844 10.8933 112.076 10.8933C105.561 10.8933 102.265 16.0733 102.265 21.3314Z" fill="white"/>
<path d="M133.051 11.5564V12.6878L133.905 12.9218C134.526 13.0779 135.186 13.312 135.337 13.7411L132.041 18.1019L128.9 13.507C129.133 13.1949 129.327 13.1169 130.293 12.8438L130.876 12.6878V11.5564H119.787V12.6878C120.719 12.9999 121.107 13.351 122.074 14.8291L126.803 21.8384L124.322 24.8381C122.074 27.5646 121.414 28.3058 119.515 29.0471V30.2131H126.686V29.0428L125.793 28.8477C124.861 28.6526 124.317 28.3795 124.05 27.9894L127.696 23.1215L131.031 28.0674C130.876 28.4186 130.526 28.6136 129.366 28.9257L128.861 29.0428V30.2088H140.338V29.0428C139.294 28.7307 138.906 28.2625 137.391 26.0821L132.934 19.4196L135.609 16.1859C137.624 13.7715 138.246 13.3033 139.915 12.6791V11.5477H133.051V11.5564Z" fill="white"/>
<path d="M148.731 7.69843C146.871 9.68374 145.201 11.0492 144.079 11.6691C143.186 12.2542 141.715 12.8394 140.162 13.3813V14.5126H142.293C142.099 18.6393 141.866 23.9017 141.866 25.3798C141.866 29.2768 144.347 30.872 147.333 30.872C150.293 30.872 152.334 29.4979 153.615 27.6903V27.3738C153.115 27.4822 152.398 27.5212 151.868 27.5212C149.814 27.5212 148.882 26.858 148.882 23.7413C148.882 19.6927 149.037 16.3809 149.037 14.5863L153.3 14.6253L153.494 14.4303V12.7181L153.3 12.523L149.037 12.679L149.192 7.69409H148.731V7.69843Z" fill="white"/>
</svg>
