<svg width="538" height="351" viewBox="0 0 538 351" fill="none" xmlns="http://www.w3.org/2000/svg">
<path d="M125.028 350.992C120.024 350.992 117.738 350.992 115.925 350.381C113.834 349.677 112.531 348.021 107.986 334.253C103.27 319.973 95.1021 292.664 90.7602 277.795C88.624 270.474 87.2622 265.66 86.2688 262.147C85.1526 258.194 84.5919 256.207 84.0391 254.612C83.0324 251.694 82.1726 250.409 77.6679 249.414C74.8107 248.782 70.3861 248.291 66.0923 247.958C64.5836 249.489 63.1577 250.196 61.3713 250.446C58.8692 250.798 55.6596 250.332 54.0067 249.681C53.0026 249.286 52.4366 248.761 52.3191 248.123C52.2309 247.651 52.4152 247.168 52.8211 246.798C53.5207 246.16 54.5381 245.997 59.5395 246.219C60.3966 246.256 62.7197 246.368 65.5636 246.579C66.2819 245.779 67.0723 244.725 67.9908 243.338C70.0923 240.159 72.9549 235.044 75.2139 230.24C74.8241 229.05 74.4796 227.794 74.1778 226.463C72.4262 218.763 72.1084 208.554 72.0256 198.669C71.9215 186.046 72.2579 176.527 73.0563 169.571C73.6945 164.012 74.6719 159.601 75.5343 155.71C75.9376 153.888 76.3194 152.165 76.6105 150.559C77.2727 146.892 77.4863 143.721 77.732 140.051C77.8148 138.803 77.9029 137.512 78.0124 136.135C78.4076 131.172 79.1552 124.499 79.8762 119.535C80.6078 114.492 81.1659 112.222 81.9403 111.152C82.3061 110.646 82.7521 110.376 83.2648 110.347C84.1833 110.296 85.0165 111.062 85.7107 111.819C86.3035 112.47 86.9604 113.318 87.7214 114.302C88.4424 115.236 89.2595 116.292 90.2609 117.497C91.6013 119.111 93.2596 120.97 94.7229 122.608C95.5239 123.504 96.2796 124.352 96.8751 125.04C98.5681 126.99 99.2276 127.931 98.9259 129.409C98.6588 130.721 97.6228 132.417 95.3557 135.261C94.8884 135.847 94.3651 136.485 93.8043 137.17C91.6387 139.816 88.9417 143.107 86.7067 146.697C84.413 150.383 81.9403 155.341 80.9924 164.17C80.1673 171.854 80.4289 182.344 80.6426 190.772L80.6773 192.14C80.8829 200.397 80.9763 206.558 80.9763 211.53C80.9763 216.502 80.8215 219.966 78.6692 225.615C78.1112 227.079 77.4249 228.677 76.6639 230.317C78.4449 235.473 81.1526 239.276 85.1607 242.343C89.5132 245.677 96.0954 248.614 102.768 250.204C107.788 251.398 111.807 251.489 114.088 250.457C116.008 249.587 116.568 247.955 117.417 240.743C117.703 238.308 118.024 235.241 118.363 231.992C119.044 225.455 119.815 218.046 120.667 212.325C122.029 203.19 123.57 198.613 124.894 195.338C126.315 191.836 127.805 189.153 131.22 185.808C132.374 184.677 133.773 183.445 135.252 182.143C138.08 179.65 141.287 176.825 144.459 173.313C149.431 167.805 154.144 160.782 156.417 156.584C158.847 152.098 158.697 150.439 158.192 148.423C157.856 147.081 157.295 145.508 156.644 143.683C156.147 142.294 155.586 140.718 155.001 138.909C154.534 137.466 153.701 134.775 152.972 131.809C152.19 132.583 151.207 133.231 149.864 133.831C146.59 135.293 141.351 136.362 135.495 136.767C129.474 137.184 121.973 136.962 117.252 136.229C112.582 135.503 110.843 134.351 104.843 128.006C98.7016 121.514 88.6988 110.283 83.433 103.97C77.6679 97.0591 76.6238 94.9174 76.4663 92.7304C76.3541 91.1674 76.7493 89.6418 77.2086 87.8735C77.4062 87.1107 77.6118 86.3239 77.8041 85.4331C77.8548 85.2037 77.9029 84.9663 77.9536 84.7236C77.2727 85.4944 76.6425 86.2546 76.0817 86.9827C73.9215 89.7939 73.051 91.9089 72.1992 94.8294C71.6998 96.5417 71.1791 98.6488 70.6718 101.012C71.7479 100.492 72.6158 100.1 73.3154 100.06C73.9375 100.025 74.3354 100.27 74.5597 100.486C75.2193 101.113 75.3394 102.271 75.3234 103.932C75.302 105.869 75.0884 108.851 73.5931 114.777C73.2433 116.167 72.8133 117.751 72.3594 119.428C70.8934 124.837 69.0696 131.569 67.5583 139.995C66.5382 145.676 65.6837 152 64.6931 159.323C63.7585 166.237 62.6984 174.075 61.3018 182.72C59.4754 194.028 57.0988 206.638 55.0027 217.766C53.8785 223.732 52.8157 229.368 52.052 233.702C49.9025 245.893 49.9479 248.782 50.5807 252.903C50.6982 253.673 50.8371 254.468 50.9946 255.391C51.6889 259.429 52.7383 265.534 53.4913 277.712C54.3698 291.856 54.9039 314.892 55.0935 330.319C55.0988 330.687 54.8024 330.988 54.4339 330.994C54.0627 331.004 53.7637 330.703 53.7583 330.335C53.5661 314.922 53.032 291.912 52.1562 277.792C51.4058 265.686 50.3644 259.624 49.6755 255.615C49.5233 254.724 49.3791 253.884 49.2589 253.103C48.6021 248.83 48.5513 245.856 50.7356 233.47C51.502 229.125 52.5647 223.487 53.6889 217.518C55.7851 206.398 58.1616 193.796 59.9827 182.506C61.3766 173.878 62.434 166.05 63.3686 159.142C64.362 151.802 65.2191 145.465 66.2445 139.755C67.7692 131.273 69.5983 124.509 71.0723 119.076C71.5263 117.404 71.9535 115.825 72.3007 114.446C73.7613 108.656 73.9696 105.775 73.9883 103.914C74.0016 102.511 73.8841 101.681 73.6385 101.447C73.6144 101.425 73.5637 101.375 73.3901 101.388C72.8828 101.417 71.9188 101.884 70.8988 102.38C70.7118 102.471 70.5223 102.564 70.3247 102.657C70.0656 103.932 69.8093 105.269 69.5663 106.642C68.864 110.582 68.2953 114.54 67.6384 119.122L67.4541 120.405C66.7705 125.171 65.8333 131.697 64.8293 135.215C63.7318 139.061 62.2498 139.691 56.8959 138.586C51.5393 137.482 42.0759 134.682 35.5471 132.551C28.3187 130.19 24.2332 128.486 21.9528 125.728C19.8273 123.154 19.2879 119.594 20.2064 114.182C20.7191 111.168 21.611 107.824 22.5536 104.279C23.0663 102.356 23.595 100.369 24.0596 98.4327C25.3761 92.9544 26.2039 87.8228 26.3267 84.3529C26.4255 81.6217 26.0837 79.8348 25.8354 78.5305C25.7633 78.1571 25.6965 77.8024 25.6484 77.4743C25.3948 75.7434 25.6778 74.6552 26.7352 73.3163C27.9769 71.7453 30.2119 69.9423 31.4349 69.0062C33.2373 67.6273 35.1226 66.371 36.6606 66.4697C38.1319 66.5684 39.0559 67.8593 39.7982 68.8968C39.8676 68.9955 39.937 69.0915 40.0065 69.1849C40.6794 70.1104 41.3202 70.8705 42.885 71.5213C44.5352 72.2094 47.0453 72.7402 48.7249 72.7615C50.4072 72.7855 51.2723 72.2788 52.4713 71.2119C52.506 71.1799 52.5434 71.1479 52.5781 71.1159C52.1989 71.1212 51.7903 71.1292 51.3604 71.1399C50.8077 71.1532 50.2176 71.1666 49.6114 71.1719C47.6408 71.1906 45.1414 71.1479 43.3203 70.6225C41.3282 70.049 40.2708 68.9635 39.7341 68.1527C39.0772 67.1632 38.9731 66.2137 39.3522 64.6507C39.6807 63.2958 40.4604 61.1194 41.1467 59.9646C42.0519 58.439 43.0052 58.6764 44.2549 59.1724C44.8023 59.3911 45.4939 59.6979 46.2976 60.0526C47.3524 60.5193 48.5486 61.0501 49.8891 61.5942C50.6234 61.8929 51.4005 62.1943 52.1535 62.485C53.8865 63.1571 55.5207 63.7919 56.5274 64.336C57.1522 64.6747 57.8145 65.1148 57.9827 65.8189C58.1482 66.5097 57.7744 67.1765 57.3445 67.798C56.8852 68.4647 56.1776 69.3182 55.4166 70.1557C55.494 70.2171 55.5661 70.2917 55.6329 70.3824C56.0868 71.0039 55.9666 71.884 55.4353 75.1566C55.1762 76.7435 54.8211 78.8986 54.4339 81.2457C53.8438 84.817 53.1735 88.8657 52.6689 92.0129C51.8651 97.0351 51.4966 99.7316 52.6181 101.316C53.6328 102.753 56.1322 103.692 59.3018 103.828C61.9587 103.94 64.8693 103.45 67.4915 102.441C68.071 102.22 68.6237 101.975 69.1497 101.732C69.7319 98.9288 70.338 96.4297 70.9148 94.448C71.812 91.3728 72.7306 89.1431 75.0217 86.1639C75.9776 84.9183 77.1312 83.5874 78.3862 82.2725C78.4316 81.9765 78.477 81.6777 78.5197 81.379C78.3622 81.1737 78.2073 80.963 78.0551 80.7523C77.4035 79.8588 76.8561 79.0506 76.1378 77.8024C76.0016 77.565 75.8575 77.309 75.7052 77.0396C75.0884 75.9434 74.3167 74.5778 73.1738 72.8949C71.585 70.5558 69.6144 68.07 68.1511 66.5604C66.613 64.9735 65.4568 64.2773 63.9774 63.6106C62.6129 62.9944 60.9921 62.405 58.9386 61.6582L58.0468 61.3328C55.745 60.4927 52.8798 59.4498 47.9532 58.1403C46.2362 57.6842 44.2816 57.2014 42.2148 56.6867C38.1106 55.6705 33.8702 54.617 30.6285 53.5848C25.9769 52.1045 23.2959 50.6483 21.6591 48.7173C20.2225 47.021 19.6457 45.0419 19.7926 42.2975C19.9448 39.4356 20.7859 36.4804 22.1023 34.192C22.9995 32.6317 24.1638 31.2795 25.1945 30.0846C25.8167 29.3618 26.4068 28.6791 26.834 28.0629C27.7072 26.8014 28.0597 25.5745 27.8247 24.6117C27.7259 24.2063 27.563 24.0062 27.4455 23.9582C27.3067 23.8995 27.0877 24.0036 26.9676 24.0702C26.2439 24.489 25.1758 25.7932 23.822 27.4468C23.595 27.7242 23.3574 28.0149 23.1117 28.3137C21.1731 30.6661 18.8793 33.2985 16.5856 34.9975C14.3185 36.6751 11.8699 37.5606 9.50136 37.5606C7.13283 37.5606 5.22626 36.7471 3.6428 35.1442C1.97922 33.4586 0.86839 30.9888 0.339678 27.8069C-0.282494 24.0596 -0.0421704 19.7788 0.996563 16.0608C2.17415 11.8387 4.50529 7.80336 7.38918 4.98687C10.257 2.1757 13.8913 0.372716 17.3413 0.0526594C20.7806 -0.267397 23.8781 0.882139 25.8407 3.21055C27.4322 5.09888 28.4309 7.94739 28.8127 11.6814C28.9622 13.1323 28.9836 14.4072 29.0023 15.5327C29.0183 16.4982 29.0343 17.3304 29.1278 17.9652C29.2934 19.0694 29.6565 19.6215 33.0825 21.5018C36.6072 23.4355 42.9785 26.564 48.6394 28.8631C51.0186 29.8286 53.3044 30.6634 55.4272 31.3942C56.2524 30.8448 57.697 30.3914 59.5395 30.122C61.7424 29.7992 64.6023 29.7246 67.1871 29.9246C69.0963 30.0713 71.7105 30.4474 73.326 31.3889C74.5597 32.109 75.254 33.1598 75.4462 34.5974C75.6225 35.907 75.31 36.9578 74.5731 37.5526C73.7666 38.2034 72.4796 38.2968 70.6397 37.8407C69.601 37.582 68.386 37.1552 66.7064 36.5658C65.6116 36.1817 64.3726 35.747 62.8906 35.2562C62.1483 35.0108 61.3472 34.7521 60.4954 34.4774C59.4834 34.152 58.4019 33.8 57.2564 33.4212C57.5474 33.5706 57.8999 33.7466 58.3298 33.944C60.7918 35.0855 65.1443 36.8192 69.3927 38.4941L71.3741 39.2756C74.4903 40.5051 77.4356 41.6653 80.8161 43.0309C84.9818 44.7139 89.7001 46.6582 92.9391 48.4639C96.1034 50.2269 97.9566 51.9125 99.1395 54.0942C99.5988 54.9424 99.9379 55.8225 100.266 56.6733C100.691 57.7749 101.091 58.815 101.652 59.4578C102.002 59.8579 102.443 60.1299 102.921 60.2686C103.249 58.4763 103.687 57.4281 104.333 55.8892C104.427 55.6678 104.523 55.4384 104.624 55.1904C105.449 53.1954 106.945 49.3947 107.679 46.3275C108.133 44.4312 108.288 42.8469 108.424 41.4493C108.493 40.7238 108.56 40.0384 108.662 39.4009C108.969 37.4726 109.596 35.907 111.775 34.0773C113.927 32.269 117.479 30.2713 120.614 29.1085C123.96 27.8656 126.964 27.5375 130.98 27.9723C135.586 28.471 140.82 29.8766 144.98 31.7276C149.447 33.7173 153.509 36.5871 156.419 39.8064C158.895 42.5455 160.775 45.7754 162.003 49.4054C163.084 52.6006 163.375 55.2998 162.972 58.431C162.58 61.4929 161.471 65.2429 160.014 68.4567C158.668 71.4226 157.079 73.7537 155.015 75.794C153.023 77.7624 150.529 79.5254 148.657 80.2908C147.097 80.9256 145.741 80.9656 144.625 80.4082C143.792 79.9921 143.434 79.408 143.391 78.3892C143.38 78.1411 143.386 77.8664 143.391 77.5784C143.402 76.9809 143.415 76.3035 143.282 75.7567C143.113 75.0739 142.681 74.4818 141.744 73.639L141.514 73.4363C140.566 72.6015 139.268 71.4573 139.386 69.4756C139.514 67.3099 141.332 64.4827 142.967 62.7704C143.119 62.6104 143.274 62.4557 143.434 62.3037C142.788 62.2957 142.091 62.3303 141.404 62.365C140.24 62.421 139.14 62.4744 138.286 62.3437C136.163 62.0183 135.735 60.5594 135.284 58.1936C134.916 56.2573 134.502 53.4088 134.136 50.8936C134.043 50.2589 133.954 49.6454 133.869 49.0773C133.452 46.2688 133.164 44.5512 132.817 43.527C132.571 42.8015 132.472 42.5002 130.44 42.2468C128.229 41.9721 124.243 41.836 121.474 41.8254C118.072 41.812 116.133 41.9801 114.99 42.3855C114.002 42.7349 113.642 43.2363 113.564 44.3725C113.522 44.9886 113.57 45.7221 113.618 46.4982C113.663 47.2183 113.708 47.9598 113.682 48.6319C113.626 50.0322 113.263 51.1203 112.384 52.5126C111.949 53.2061 111.391 53.9662 110.801 54.7743C110.307 55.4491 109.797 56.1479 109.305 56.8734C109.14 57.1187 108.977 57.3668 108.814 57.6148C107.893 59.0124 106.939 60.458 105.65 61.1808C105.14 61.4662 104.595 61.6315 104.05 61.6875C104.039 61.7596 104.031 61.8342 104.021 61.9089C103.62 65.1282 103.479 69.9423 104.109 72.9109C104.63 75.3646 105.714 76.7409 107.084 78.4825C107.42 78.9119 107.77 79.3547 108.133 79.8428C109.022 81.0323 109.978 82.4619 110.902 83.8408C111.967 85.4331 112.977 86.9373 113.847 88.0442C115.449 90.0739 116.36 90.4286 118.275 89.7672C119.543 89.3298 121.196 88.4416 123.108 87.4121C124.579 86.62 126.248 85.7238 127.952 84.929C131.519 83.2647 135.741 81.8298 138.705 81.2723C141.335 80.7763 142.67 81.0403 144.2 82.3605C145.434 83.4274 147.025 85.3611 147.674 86.9934C147.818 87.3561 147.915 87.7001 147.957 88.0442C149.605 88.0629 151.578 88.1856 153.912 88.4123C158.27 88.8337 161.61 89.4018 164.12 90.1432C167.17 91.0447 169.359 92.3303 170.809 94.0693C172.502 96.099 173.087 98.5821 173.285 99.881C173.557 101.679 173.386 103.194 171.661 104.743C170.916 105.413 169.869 106.101 168.761 106.829C167.565 107.616 166.209 108.506 165.026 109.512C162.796 111.408 161.052 113.817 159.538 117.092C158.598 119.122 157.757 121.447 156.945 123.699C156.43 125.125 155.941 126.475 155.471 127.627C155.009 128.755 154.561 129.7 154.019 130.513C154.785 133.81 155.746 136.917 156.259 138.501C156.839 140.291 157.397 141.856 157.891 143.238C158.553 145.094 159.124 146.7 159.477 148.103C160.128 150.706 160.011 152.736 157.578 157.224C155.268 161.489 150.483 168.621 145.439 174.209C142.216 177.777 138.98 180.629 136.125 183.146C134.659 184.437 133.273 185.659 132.144 186.763C128.878 189.961 127.508 192.42 126.123 195.839C124.825 199.04 123.319 203.526 121.978 212.522C121.129 218.217 120.36 225.61 119.682 232.131C119.343 235.385 119.022 238.457 118.737 240.901C117.877 248.195 117.233 250.494 114.632 251.673C112.048 252.841 107.834 252.783 102.453 251.5C95.6067 249.87 88.8376 246.84 84.3436 243.4C80.4476 240.415 77.7186 236.788 75.8575 232.006C73.6732 236.508 71.0697 241.117 69.115 244.072C68.4395 245.093 67.8146 245.965 67.2165 246.707C70.8747 247.008 75.0377 247.462 77.975 248.113C82.8669 249.193 84.146 250.785 85.3182 254.178C85.8816 255.81 86.445 257.808 87.5692 261.784C88.5626 265.297 89.9217 270.106 92.0553 277.422C96.3945 292.286 104.557 319.573 109.265 333.837C113.73 347.362 114.926 348.634 116.365 349.117C117.97 349.658 120.187 349.658 125.041 349.658C129.896 349.658 137.634 349.658 141.89 348.901C145.848 348.197 146.638 346.983 147.677 342.535C148.804 337.715 149.92 330.284 149.88 324.555C149.834 318.397 148.425 314.332 145.009 310.529C143.303 308.627 141.081 306.779 138.729 304.824C136.053 302.599 133.287 300.298 131.113 297.759C126.974 292.92 125.057 287.189 124.034 276.608C123.07 266.609 122.801 251.014 123.348 236.873C123.826 224.543 124.945 213.488 126.502 205.745C127.946 198.546 129.623 194.85 132.905 191.617C135.725 188.841 139.866 186.27 145.939 183.525C148.956 182.162 152.171 180.879 155.009 179.746C156.996 178.954 158.873 178.204 160.323 177.569C163.875 176.012 164.962 175.094 166.243 173.291C167.525 171.488 169.071 168.57 169.923 166.354C170.697 164.338 170.732 163.306 170.072 161.932C169.677 161.11 169.036 160.174 168.222 158.987C167.525 157.971 166.735 156.819 165.893 155.437C163.979 152.29 161.982 148.239 160.545 144.604C158.705 139.944 157.907 136.298 157.648 134.946C157.172 132.463 157.236 131.143 157.56 129.126C157.864 127.219 158.47 124.325 159.626 121.37C160.996 117.871 162.865 115.044 165.691 112.203C168.935 108.939 173.763 105.391 177.987 103.164C182.022 101.036 185.795 99.9476 189.864 99.7369C193.755 99.5342 197.651 100.156 201.125 101.532C204.46 102.852 207.827 105.021 210.359 107.477C212.957 109.997 214.233 112.467 214.968 114.105C215.769 115.889 216.543 118.058 216.217 120.607C216.057 121.869 215.646 123.157 215.251 124.405C214.949 125.349 214.666 126.243 214.548 126.966C214.327 128.355 214.65 129.15 216.124 130.838C216.596 131.38 217.165 131.991 217.766 132.636C219.008 133.97 220.292 135.346 221.024 136.431C222.183 138.157 222.049 139.376 220.559 140.64C220.07 141.054 219.438 141.488 218.765 141.95C217.811 142.603 216.733 143.342 215.793 144.209C214.297 145.585 213.034 147.409 212.65 148.746C212.34 149.823 212.615 150.477 213.603 151.893C213.734 152.08 213.873 152.274 214.017 152.48C215.005 153.867 216.233 155.592 216.912 157.609C217.633 159.75 217.753 162.383 217.229 164.65C216.77 166.634 215.867 168.144 214.383 169.403C214.078 169.661 213.769 169.893 213.438 170.141C212.345 170.96 211.213 171.808 210.223 173.649C209.889 174.27 209.568 175.009 209.261 175.806C210.108 176.935 211.002 178.004 211.902 178.839C214.415 181.165 217.157 181.794 221.05 182.098C224.356 182.357 228.933 182.413 234.653 182.266C237.347 182.197 239.563 182.101 241.705 182.01C242.893 181.959 244.068 181.909 245.304 181.863C245.462 181.858 245.62 181.853 245.78 181.847C245.844 180.813 245.919 179.922 246.012 179.106C246.236 177.145 246.562 175.66 246.853 174.35C247.067 173.379 247.27 172.462 247.403 171.475C247.742 168.976 247.63 166.245 247.107 164.175C246.53 161.887 245.43 160.302 243.652 159.19C241.662 157.945 238.663 157.208 236.274 156.707C233.366 156.096 231.192 155.8 229.44 155.782C228.255 155.768 227.184 155.886 226.236 155.99C225.625 156.056 225.048 156.12 224.49 156.144C222.799 156.222 221.488 155.923 219.969 155.117C218.388 154.28 216.466 152.805 215.347 151.789C214.297 150.837 213.883 150.231 213.769 149.476C213.63 148.564 214.009 147.86 214.994 147.191C216.06 146.468 217.916 145.718 219.408 145.404C221.061 145.057 222.356 145.228 224.471 145.716C225.128 145.868 225.868 146.052 226.65 146.246C228.394 146.681 230.372 147.172 231.969 147.436C234.204 147.801 235.705 147.732 237.692 147.476C238.028 147.433 238.372 147.385 238.73 147.335C240.509 147.087 242.525 146.804 244.781 146.895C247.061 146.985 250.354 147.497 253.083 149.404C255.481 151.079 257.369 153.829 258.546 157.358C259.612 160.55 260.162 164.572 260.14 168.987C260.119 173.273 259.58 177.393 259.054 179.572C258.439 182.13 257.617 182.578 255.107 182.792C253.425 182.933 250.88 183.016 248.183 183.104C247.804 183.117 247.425 183.128 247.045 183.141C246.901 186.043 246.816 190.046 246.68 196.245L246.637 198.168C246.367 210.538 245.988 226.117 245.462 236.87C244.971 246.886 244.354 252.78 243.945 256.682C243.892 257.205 243.841 257.688 243.793 258.136L243.71 258.973C243.385 262.259 243.235 263.758 241.758 264.619C240.968 265.081 239.868 265.286 238.474 265.55C237.328 265.766 236.028 266.012 234.565 266.452C231.368 267.417 227.376 269.348 225.456 270.274C224.105 270.927 223.737 271.106 223.35 271.498C226.089 271.413 228.394 270.73 230.896 269.916C231.315 269.78 231.742 269.639 232.177 269.495C234.597 268.695 237.342 267.788 240.367 267.167C244.423 266.332 248.378 266.137 251.807 266.604C255.801 267.148 259.46 268.601 261.844 270.594C264.191 272.554 265.505 275.205 265.86 278.697C266.231 282.335 265.529 286.114 263.98 288.805C261.967 292.304 258.456 294.289 256.544 295.161C253.628 296.489 250.955 296.852 247.868 296.342C245.676 295.98 243.254 295.174 240.909 294.398C239.865 294.051 238.88 293.723 237.937 293.443C234.768 292.499 232.428 292.184 230.116 292.4C228.482 292.552 226.824 292.974 225.363 293.347C225.259 293.374 225.155 293.401 225.053 293.427C224.954 297.751 224.618 304.546 224.079 312.991C223.881 316.09 223.665 319.248 223.456 322.299C223.064 328.055 222.695 333.493 222.54 337.086C222.458 339.022 222.447 340.254 223.251 341.121C224.799 342.791 229.617 343.497 242.34 343.924C262.752 344.607 303.919 344.607 326.037 344.607C348.155 344.607 353.506 344.607 356.153 344.065C357.349 343.82 358.062 343.473 358.331 343.004C358.388 342.905 358.43 342.799 358.454 342.676H330.307C307.829 342.676 290.074 342.676 280.539 342.462C270.976 342.249 269.254 341.836 267.914 340.419C266.493 338.921 265.833 336.611 265.895 333.354C265.895 333.213 265.9 333.069 265.906 332.922C265.574 332.959 265.246 332.989 264.915 333.008C261.617 333.208 257.996 332.543 254.72 331.141C252.18 330.055 249.935 328.572 247.652 326.473C245.892 324.857 244.116 322.958 243.409 319.104C242.768 315.61 242.992 310.556 243.259 306.541C243.505 302.834 243.742 300.631 244.023 299.396C244.191 298.655 244.405 298.105 244.901 297.841C245.371 297.591 245.873 297.729 246.258 297.876C246.891 298.119 247.766 298.617 248.781 299.196C249.112 299.386 249.459 299.583 249.817 299.783C251.152 300.53 252.722 301.359 254.49 301.762C255.502 301.994 256.576 302.09 257.617 302.183C258.373 302.25 259.086 302.314 259.697 302.429C261.305 302.725 262.207 303.362 262.92 304.701C263.58 305.939 264.092 307.816 264.402 310.131C264.808 313.159 264.677 315.612 263.999 317.634C263.513 319.08 262.733 320.347 261.753 321.325C262.458 322.766 263.31 324.347 264.149 325.275C264.875 326.078 265.601 326.409 266.664 326.348C266.942 324.702 267.294 322.886 267.721 320.909C267.868 320.224 268.015 319.568 268.157 318.925C268.848 315.812 269.446 313.124 269.78 309.193C270.183 304.421 270.183 297.74 270.183 292.862C270.183 287.984 270.183 284.428 269.908 281.902C269.644 279.459 269.134 277.894 266.805 273.978C266.314 273.149 265.735 272.21 265.123 271.215C262.76 267.375 259.817 262.592 258.151 258.381C257.55 256.863 257.115 255.42 256.811 254.068C255.988 254.076 255.235 253.935 254.674 253.727C253.318 253.225 252.992 252.225 252.843 250.438C252.701 248.758 252.672 245.76 253.059 242.848C253.417 240.162 254.138 237.559 255.203 235.116C256.415 232.334 257.825 230.349 259.644 228.869C260.354 228.29 261.19 227.741 262.143 227.221C261.908 226.719 261.654 226.229 261.377 225.709C261.118 225.22 260.837 224.708 260.549 224.175C259.168 221.633 257.604 218.75 256.757 216.126C255.783 213.101 255.735 210.29 256.608 207.527C257.166 205.764 258.058 204.131 258.845 202.688C259.174 202.086 259.486 201.515 259.743 200.99C259.975 200.515 260.162 200.072 260.309 199.629C260.039 199.64 259.791 199.645 259.572 199.645C258.765 199.645 258.186 199.563 257.785 199.157C257.299 198.661 257.315 197.949 257.345 196.767C257.374 195.517 257.462 191.705 257.622 189.249C257.78 186.88 258.007 185.664 258.434 184.909C258.832 184.211 259.299 184.117 259.622 184.16C260.423 184.272 260.784 185.312 261.03 186.315C261.518 188.305 262.004 192.441 262.095 195.351C262.13 196.477 262.103 197.397 261.994 198.224C263.655 198.162 265.721 198.13 267.919 198.4C270.752 198.749 274.883 199.741 278.456 202.48C281.949 205.158 284.365 209.127 285.497 211.253C286.977 214.037 287.634 216.211 287.839 219.006C288.005 221.281 287.901 224.743 287.051 227.013C286.25 229.154 284.795 230.147 282.736 229.963C281.009 229.808 278.987 228.842 277.033 227.909L276.824 227.81C274.838 226.861 273.198 226.117 271.729 225.882C270.197 225.637 268.813 225.959 266.947 226.602C265.817 226.989 264.787 227.405 263.86 227.845C264.61 229.797 265.166 232.315 265.601 237.113C265.93 240.727 266.205 245.709 266.469 250.524C266.728 255.244 266.976 259.701 267.267 262.952C267.809 269.015 268.469 269.767 268.661 269.852C268.661 269.852 268.699 269.847 268.776 269.812C269.615 269.418 270.958 267.308 272.218 262.563C273.446 257.936 274.677 250.476 275.081 245.208C275.446 240.423 275.07 237.988 274.605 236.07C274.424 235.316 274.237 234.665 274.074 234.091C273.834 233.249 273.641 232.582 273.585 232.008C273.561 231.76 273.497 231.099 274.018 230.675C274.637 230.171 275.746 230.256 278.101 230.987C281.431 232.019 287.967 234.625 293.644 237.183C299.671 239.898 303.65 242.071 305.471 243.645C306.582 244.605 307.057 245.48 306.918 246.318C306.801 247.04 306.243 247.611 305.265 248.011C304.656 248.259 303.927 248.425 303.156 248.601C302.069 248.846 300.838 249.123 299.853 249.683C298.389 250.51 297.212 252.055 296.031 254.687C294.801 257.437 293.927 260.637 293.025 265.734C291.815 272.554 290.608 282.553 289.997 287.906C289.839 289.293 289.687 290.659 289.537 291.992C288.835 298.311 288.226 303.77 287.358 307.774C286.253 312.865 284.718 315.452 282.75 317.773C280.763 320.117 278.154 322.384 275.404 324.153C272.912 325.756 270.266 326.964 268.146 327.463C268.039 327.487 267.932 327.511 267.828 327.532C267.607 328.945 267.444 330.215 267.345 331.341C270.004 330.796 272.587 329.647 274.928 327.959C276.894 326.54 278.814 324.654 280.509 322.99C281.652 321.867 282.731 320.808 283.735 319.965C286.461 317.685 288.595 317.074 292.859 317.357C297.222 317.645 304.173 318.96 310.307 320.12C316.408 321.272 324.003 322.71 331.629 324.697C340.638 327.044 347.359 329.508 351.602 332.023C357.039 335.243 358.884 338.819 359.501 340.665C359.578 340.9 359.645 341.126 359.693 341.34H502.187C522.937 341.34 529.202 341.34 532.614 340.363C533.474 340.118 534.182 339.838 534.75 339.331C532.889 338.099 531.122 336.597 529.493 334.869C525.669 330.812 522.673 325.526 520.334 318.712C517.33 309.961 515.858 300.116 516.198 290.989C516.47 283.639 517.874 276.107 519.113 269.463C519.623 266.734 520.104 264.158 520.433 261.939C521.461 255.028 521.143 251.11 519.37 248.833C518.585 247.824 517.68 247.31 516.676 247.299H516.643C515.111 247.299 513.322 248.505 511.463 250.785C508.342 254.62 504.654 261.83 500.387 270.175C499.172 272.551 497.914 275.008 496.627 277.472C489.869 290.395 483.815 300.5 479.58 305.931C475.409 311.276 471.97 313.601 468.434 313.484C465.286 313.377 463.449 311.35 462.298 306.704C461.711 304.333 461.278 301.237 460.822 297.959C460.357 294.622 459.876 291.173 459.225 288.661C457.82 283.236 455.767 282.572 454.346 282.545C454.319 282.545 454.29 282.545 454.263 282.545C451.871 282.545 449.868 284.503 448.757 287.93C447.777 290.96 447.363 295.409 446.928 300.122C446.752 302.013 446.573 303.968 446.349 305.856C445.484 313.201 444.052 318.869 441.972 323.179C439.315 328.689 435.625 332.066 433 333.93C429.366 336.509 425.852 337.547 422.893 338.219C418.626 339.19 415.496 339.342 413.593 338.667C410.265 337.491 410.922 333.957 411.702 331.399C412.837 327.689 415.523 322.304 420.081 313.66C421.27 311.406 422.557 308.982 423.924 306.408C427.417 299.828 431.379 292.371 435.502 284.348C442.717 270.308 447.903 259.437 451.35 251.113C455.137 241.97 457.481 234.387 458.723 227.25C459.884 220.572 459.924 214.952 459.866 209.77C459.82 205.654 459.7 202.139 459.518 199.341C457.743 197.765 455.876 196.101 453.914 194.343L452.143 192.756C446.386 187.59 441.841 183.509 437.908 180.735C434.116 178.06 430.712 176.414 426.159 175.046C423.061 174.115 419.764 173.403 417.112 172.833C416.428 172.686 415.782 172.544 415.184 172.411C412.255 171.758 410.244 171.232 409.061 169.899C407.98 168.682 407.649 166.879 407.913 163.684C408.137 160.966 408.815 156.902 409.828 153.944C410.821 151.034 412.151 149.17 414.137 147.9C416.161 146.607 418.738 145.98 421.593 146.089C424.538 146.201 427.83 147.121 430.867 148.679C434.033 150.306 437.075 152.698 439.676 154.813L440.471 155.461C441.318 156.152 442.204 156.878 443.289 157.731C444.677 154.563 446.426 151.989 448.52 150.042C452.287 146.537 457.82 144.454 462.699 142.614C463.636 142.262 464.52 141.928 465.393 141.587C469.372 140.027 472.472 138.522 474.662 137.088C474.531 135.911 474.44 134.442 474.346 132.9C474.242 131.228 474.136 129.502 473.967 127.809C473.575 123.877 472.905 120.698 472.411 119.034C471.89 117.284 471.497 116.841 470.21 116.012C469.951 115.844 469.66 115.665 469.35 115.473C467.965 114.617 466.24 113.55 465.15 112.278C463.903 110.822 463.425 109.027 463.692 106.794C463.906 105.005 464.579 103.036 465.591 101.252C465.989 100.548 466.437 99.8836 466.83 99.2969C466.872 99.2328 466.915 99.1688 466.958 99.1048C465.767 99.7289 464.557 100.281 463.519 100.705C460.613 101.892 458.079 102.508 453.828 103.367L452.627 103.607C448.645 104.402 443.689 105.394 440.357 106.725C436.784 108.152 435.187 109.92 433.774 114.003C432.498 117.7 431.425 123.216 430.477 128.083C430.343 128.774 430.21 129.452 430.081 130.108C429.051 135.335 428.146 139.509 426.672 141.72C425.115 144.054 423 144.147 420.549 144.257H420.479C418.143 144.363 415.237 144.494 413.088 144.926C411.248 145.297 409.822 145.817 408.217 149.148C406.276 153.178 404.311 160.638 403.755 162.828C402.674 167.093 402.132 170.04 402.364 173.393C402.476 175.012 402.762 176.716 403.066 178.522C403.382 180.391 403.705 182.325 403.838 184.232C404.068 187.515 403.761 190.921 402.842 195.276C402.073 198.922 401.002 202.704 398.743 209.724C398.108 211.701 397.379 213.936 396.61 216.294C394.666 222.249 392.463 228.997 390.887 234.31C388.981 240.746 387.811 245.685 387.213 249.857C386.746 253.1 386.65 255.655 386.933 257.242C387.205 258.768 387.736 258.957 388.26 259.024C388.738 259.082 390.014 259.242 392.377 252.716C394.439 247.03 397.232 236.476 399.697 227.167C400.033 225.893 400.367 224.636 400.693 223.412C403.176 214.069 405.366 206.134 407.787 197.688C409.721 190.953 411.918 183.445 413.561 179.602C414.941 176.369 416.177 175.076 417.699 175.276C419.435 175.502 419.641 177.372 419.625 178.972C419.601 181.597 418.877 185.958 417.534 191.583C416.396 196.349 414.733 202.358 413.125 208.169C412.677 209.791 412.231 211.399 411.804 212.962C409.547 221.193 408.119 226.829 407.307 230.696C406.404 234.996 406.212 237.415 406.669 238.775C406.88 239.407 407.24 239.844 408.215 240.207C408.388 239.084 408.559 237.972 408.722 236.903C409.058 234.694 409.376 232.608 409.651 230.981C410.346 226.869 410.818 225.247 413.059 224.546C414.079 224.226 415.456 224.111 417.053 223.98C418.527 223.858 420.196 223.719 421.983 223.396C425.774 222.708 429.919 221.225 432.541 219.622C434.965 218.139 436.22 216.499 437.345 213.352C438.375 210.466 439.259 206.558 440.116 202.779L440.228 202.288C441.048 198.672 441.903 194.964 442.546 192.833C442.901 191.657 443.265 190.652 444.082 190.294C444.781 189.988 445.54 190.268 446.124 190.548C447.371 191.145 450.53 193.113 452.896 198.453C454.958 203.102 456.389 210.421 456.541 217.102C456.68 223.145 455.751 229.242 454.058 233.414C452.509 237.228 450.453 239.098 446.202 240.559C441.924 242.029 435.702 243.04 429.561 243.261C423.128 243.493 416.18 242.925 411.82 242.317C410.858 242.183 410.025 242.047 409.304 241.893C409.016 243.725 408.717 245.536 408.423 247.152C407.544 251.985 406.671 255.447 404.805 258.853C402.997 262.152 400.332 265.252 397.299 267.575C393.798 270.258 390.161 271.671 386.185 271.893C382.07 272.122 377.01 271.039 372.641 268.993C368.615 267.108 365.17 264.411 362.946 261.403C360.673 258.33 359.968 255.18 360.425 250.172C360.879 245.197 362.516 238.132 364.099 231.296L365.066 227.117C366.39 221.377 367.643 215.955 368.457 212.97C369.285 209.94 369.8 208.543 370.978 208.804C372.134 209.06 372.214 210.538 371.966 213C371.8 214.635 371.432 217.022 371.042 219.55C370.716 221.662 370.377 223.85 370.126 225.799C369.587 229.992 369.45 233.105 369.739 234.798C369.91 235.817 370.198 236.097 370.262 236.113C370.273 236.113 370.342 236.102 370.457 236.017C371.191 235.473 371.995 233.064 373.066 228.216C374.393 222.196 376.316 211.562 377.181 205.457C378.049 199.336 377.744 198.325 376.85 197.48C376.121 196.791 374.911 196.191 373.629 195.557C372.999 195.244 372.348 194.922 371.709 194.57C369.138 193.145 367.605 191.647 367.023 189.982C366.316 187.961 366.954 185.544 368.818 183.184C370.786 180.693 373.952 178.434 377.507 176.983C381.226 175.465 385.744 174.641 389.595 174.78C390.69 174.817 391.731 174.94 392.7 175.14C393.536 173.998 394.375 172.584 395.205 170.811C397.558 165.781 399.779 158.097 401.4 152.485C401.654 151.602 401.891 150.781 402.11 150.039C403.715 144.582 404.313 143.323 406.116 141.614C406.685 141.072 407.376 140.485 408.111 139.867C409.582 138.618 411.248 137.205 412.514 135.677C414.372 133.434 415.384 130.956 417.422 125.416C417.718 124.605 418.039 123.733 418.372 122.821C420.316 117.5 422.736 110.878 424.746 106.386C427.053 101.231 428.864 98.7768 431.662 97.0058C434.287 95.3442 437.71 94.2853 442.757 93.5705C447.62 92.8824 454.066 92.509 457.999 92.453C461.908 92.3997 463.324 92.6637 464.333 93.1064C465.438 93.5945 466.026 94.3013 466.779 95.5229C467.035 95.9389 467.372 96.5124 467.711 97.1765C467.871 97.0831 468.026 96.9898 468.178 96.8964C468.4 96.0803 468.189 95.3575 467.834 94.3307C467.743 94.0666 467.644 93.7866 467.54 93.5012C467.163 92.4477 466.739 91.2528 466.528 90.2366C466.256 88.919 466.338 87.8949 466.587 86.4653C466.846 84.9797 467.254 83.214 468.467 80.3842C469.636 77.661 471.679 73.6417 474.787 69.9557C477.879 66.283 481.775 63.2238 485.471 61.5622C488.926 60.0073 492.459 59.5778 496.59 60.21C499.858 60.7087 503.661 61.8956 507.298 63.5492C510.86 65.1682 513.191 66.8165 515.34 69.2409C517.746 71.9534 520.048 75.8047 521.656 79.8054C523.367 84.0675 524.259 88.4283 524.734 94.8561C525.228 101.519 525.268 110.696 525.143 117.065C525.114 118.524 525.076 119.85 525.041 121.061C524.924 125.197 524.846 127.929 525.276 129.884C525.789 132.22 527.041 133.474 529.656 135.399C530.115 135.738 530.609 136.093 531.127 136.463C533.53 138.189 536.521 140.339 538.646 142.747C541.333 145.796 542.614 149.271 542.935 154.371C543.279 159.876 542.54 166.989 541.707 171.267C540.825 175.798 539.68 178.26 537.624 180.05C537.29 180.341 536.938 180.607 536.577 180.861L536.582 180.869C538.465 183.309 539.156 185.221 539.135 187.918C539.114 190.622 538.355 194.183 536.606 199.824C535.995 201.79 535.258 204.033 534.478 206.404C532.983 210.954 531.285 216.109 530.075 220.604C528.206 227.552 527.509 232.864 528.598 244.264C529.236 250.929 530.502 259.675 531.843 268.935C532.844 275.84 533.877 282.98 534.748 289.904C536.681 305.272 537.912 320.469 537.958 329.564C538 338.019 536.978 340.502 532.988 341.646C529.394 342.676 523.632 342.676 502.192 342.676H359.808C359.771 343.044 359.664 343.372 359.49 343.671C359.01 344.503 358.035 345.042 356.422 345.372C353.642 345.94 348.889 345.94 326.04 345.94C303.19 345.94 262.733 345.94 242.3 345.258C228.832 344.807 224.153 344.052 222.276 342.028C221.053 340.71 221.131 338.923 221.211 337.03C221.366 333.418 221.737 327.975 222.129 322.208C222.338 319.157 222.551 315.999 222.749 312.905C223.272 304.704 223.606 298.065 223.713 293.753C223.595 293.779 223.483 293.801 223.374 293.825C221.723 294.15 220.418 294.129 219.408 292.968C218.986 292.483 218.653 291.848 218.388 291.016C217.993 291.421 217.638 291.843 217.341 292.27C216.367 293.678 215.942 295.259 215.534 296.79C215.357 297.447 215.192 298.065 214.986 298.641C214.268 300.679 213.133 302.039 211.307 303.056C209.563 304.026 207.162 304.704 200.057 305.293C192.962 305.883 181.429 306.381 172.871 306.085C163.974 305.779 158.248 304.61 152.449 301.927C146.414 299.135 140.486 294.763 136.587 290.235C132.51 285.498 130.542 280.516 129.573 272.469C128.718 265.382 128.574 255.066 129.14 241.807C129.653 229.803 130.63 218.049 131.69 211.138C132.833 203.667 134.181 200.915 137.954 198.336C140.211 196.794 143.303 195.348 146.697 193.879C146.451 193.506 146.232 193.161 146.045 192.849C145.396 191.764 145.049 190.926 145.319 190.108C145.69 188.982 147.081 188.358 149.714 187.262C153.992 185.48 161.987 182.349 166.369 180.967C169.632 179.938 171.349 179.687 172.353 180.77C173.197 180.234 173.934 179.847 174.697 179.655C176.663 179.164 178.545 179.999 182.161 182.965C187.579 187.408 192.038 192.689 195.792 199.104C199.763 205.892 203.987 215.824 208.345 228.629C210.938 236.244 212.877 242.832 214.295 247.643C214.687 248.979 215.05 250.206 215.381 251.313C216.839 256.159 217.79 258.864 218.944 260.203C219.916 261.328 221.064 261.552 223.042 260.997C224.893 260.48 227.71 259.16 229.518 257.482C231.131 255.986 231.876 254.279 232.169 251.396C232.527 247.896 232.095 243.97 230.845 239.391C229.195 233.347 226.004 225.853 223.619 220.63C220.791 214.437 217.584 208.119 214.823 203.294C213.785 201.478 212.858 199.965 212.044 198.632C210.842 196.669 209.891 195.116 209.181 193.578C208.014 191.057 207.44 188.419 207.747 187.011C207.878 186.416 208.169 186.011 208.618 185.808C209.392 185.456 210.439 185.744 212.482 186.867C213.47 187.411 214.655 188.131 216.028 188.963C218.164 190.26 220.586 191.729 222.976 192.961C224.3 193.644 225.614 194.252 226.882 194.842C229.344 195.983 231.67 197.061 233.515 198.44C235.857 200.189 237.659 202.55 239.19 205.865C240.394 208.473 241.024 210.813 241.131 216.352C241.235 221.807 240.832 230.331 240.509 237.18L240.466 238.103C240.162 244.544 239.943 249.198 239.481 252.577C238.968 256.333 238.108 258.57 234.621 261.131C230.978 263.809 224.714 266.636 221.619 267.791C217.934 269.164 216.877 268.751 215.331 265.329C214.976 264.545 214.578 263.585 214.116 262.472C212.714 259.096 210.794 254.471 207.662 248.707C204.089 242.13 198.949 234.123 194.82 227.693C194.097 226.567 193.405 225.487 192.754 224.466C188.85 218.353 186.422 214.347 184.818 211.695L184.091 210.495C182.527 207.921 181.667 206.502 181.712 204.398C181.741 203.011 182.163 201.35 182.535 199.885C182.713 199.184 182.882 198.52 182.983 197.976C183.264 196.485 183.077 196.077 181.875 195.551C181.213 195.26 180.281 194.98 179.293 194.684C178.04 194.308 176.745 193.919 175.797 193.447C173.808 192.452 173.41 191.02 173.068 189.105C172.967 188.539 172.868 187.905 172.764 187.235C172.518 185.651 172.241 183.869 171.869 182.696C171.787 182.752 171.704 182.81 171.618 182.869C170.679 183.512 169.616 184.24 168.262 185.059C164.817 187.144 159.509 189.796 153.701 192.332C152.523 192.847 151.322 193.356 150.16 193.852C149.672 194.06 149.186 194.266 148.705 194.471C148.985 194.879 149.284 195.308 149.597 195.759C151.255 198.146 153.316 201.118 155.292 204.507C160.508 213.456 162.115 220.748 162.873 225.455C163.845 231.502 164.112 238.633 164.347 244.923C164.454 247.816 164.558 250.55 164.719 252.932C165.239 260.635 166.395 264.449 168.844 266.529C171.349 268.66 175.496 269.207 183.29 269.572C186.772 269.735 191.026 269.871 195.141 270.002C200.22 270.164 205.469 270.33 209.486 270.554C212.989 270.749 215.595 270.989 217.689 271.178C219.243 271.319 220.5 271.437 221.617 271.487C221.697 271.391 221.769 271.303 221.838 271.221C222.765 270.106 222.882 270.05 224.88 269.084C226.832 268.14 230.888 266.18 234.185 265.185C235.716 264.721 237.112 264.459 238.234 264.249C239.499 264.011 240.501 263.822 241.093 263.478C241.943 262.982 242.073 262.04 242.391 258.853L242.477 258.013C242.522 257.562 242.573 257.077 242.629 256.554C243.037 252.668 243.652 246.795 244.14 236.817C244.666 226.079 245.043 210.514 245.315 198.152L245.358 196.229C245.491 190.108 245.577 186.118 245.718 183.2C245.601 183.205 245.483 183.208 245.366 183.213C244.132 183.258 242.96 183.309 241.774 183.36C239.627 183.453 237.406 183.549 234.698 183.618C228.93 183.765 224.308 183.706 220.957 183.445C216.773 183.12 213.803 182.424 211.005 179.834C210.225 179.111 209.464 178.241 208.733 177.313C208.449 178.137 208.18 178.98 207.926 179.78C207.552 180.951 207.197 182.058 206.85 182.973C205.817 185.685 204.781 186.83 203.152 187.046C201.606 187.254 199.79 186.606 195.525 182.762C191.341 178.994 184.716 172.072 180.607 167.477C176.422 162.796 174.817 160.47 173.458 157.104C171.821 153.056 170.724 148.001 170.217 145.35C169.456 141.376 169.071 137.901 169.138 135.562C169.21 132.98 169.837 131.556 171.237 130.79C172.313 130.204 173.974 129.985 176.174 130.134C176.414 130.15 176.647 130.172 176.879 130.19C177.886 130.276 178.78 130.353 179.875 130.094C179.904 129.742 179.947 129.401 180 129.07C180.521 125.875 182.233 124.115 184.828 122.314C187.605 120.386 191.728 118.236 195.328 116.841C198.837 115.481 201.91 114.836 204.716 114.854C207.392 114.876 209.929 115.489 211.502 116.495C213.475 117.756 213.494 119.348 213.451 119.804C213.299 121.487 211.544 121.365 210.968 121.327C210.407 121.287 209.723 121.181 208.933 121.053C207.913 120.89 206.754 120.706 205.542 120.623C203.841 120.506 201.477 120.533 198.289 121.773C195.427 122.888 191.955 124.92 188.631 126.947L187.643 127.553C184.986 129.182 182.876 130.473 181.151 131.097C181.079 133.25 181.344 135.759 181.587 138.037L181.664 138.771C182.017 142.144 182.155 144.465 180.932 145.905C180.732 146.142 180.5 146.348 180.246 146.521C180.983 148.466 181.947 150.711 183.119 152.808C185.175 156.483 187.624 159.265 190.604 161.31C193.253 163.129 196.409 164.394 198.714 165.319C199.088 165.469 199.443 165.61 199.771 165.746C202.196 166.741 203.365 167.397 205.208 169.941C205.675 170.587 206.193 171.363 206.743 172.184C207.24 172.929 207.779 173.731 208.345 174.539C208.572 173.995 208.81 173.483 209.056 173.027C210.185 170.928 211.491 169.949 212.644 169.085C212.96 168.85 213.256 168.626 213.528 168.397C214.781 167.333 215.547 166.05 215.937 164.359C216.407 162.324 216.303 159.961 215.657 158.043C215.04 156.214 213.875 154.576 212.938 153.261C212.791 153.053 212.65 152.853 212.516 152.664C211.534 151.255 210.874 150.122 211.376 148.386C211.83 146.809 213.213 144.788 214.898 143.235C215.908 142.307 217.029 141.536 218.02 140.859C218.661 140.419 219.269 140.003 219.705 139.632C220.548 138.917 220.805 138.493 219.924 137.184C219.253 136.186 218.004 134.847 216.797 133.554C216.188 132.9 215.611 132.284 215.125 131.724C213.622 130.001 212.917 128.761 213.24 126.763C213.371 125.942 213.67 125.003 213.988 124.008C214.367 122.818 214.757 121.589 214.903 120.447C215.133 118.658 214.802 116.98 213.761 114.66C212.65 112.182 211.317 110.264 209.44 108.442C207.029 106.103 203.822 104.039 200.644 102.78C197.346 101.473 193.645 100.886 189.945 101.076C186.075 101.276 182.478 102.316 178.623 104.348C174.508 106.517 169.811 109.971 166.652 113.147C163.963 115.852 162.182 118.54 160.884 121.861C159.771 124.704 159.186 127.497 158.892 129.34C158.59 131.233 158.534 132.399 158.975 134.7C159.226 136.015 160.006 139.563 161.803 144.118C163.212 147.687 165.172 151.661 167.05 154.749C167.869 156.099 168.649 157.235 169.338 158.238C170.185 159.47 170.852 160.444 171.29 161.358C172.225 163.3 171.974 164.783 171.183 166.837C170.281 169.181 168.703 172.155 167.343 174.067C165.832 176.196 164.379 177.257 160.873 178.794C159.402 179.439 157.517 180.191 155.519 180.989C152.694 182.117 149.493 183.394 146.505 184.744C140.582 187.419 136.563 189.908 133.861 192.569C130.795 195.591 129.217 199.107 127.831 206.009C126.291 213.685 125.18 224.666 124.705 236.929C124.16 251.014 124.427 266.54 125.386 276.483C126.39 286.89 128.16 292.232 132.149 296.897C134.248 299.351 136.972 301.615 139.605 303.805C141.995 305.795 144.254 307.672 146.024 309.646C149.68 313.716 151.188 318.037 151.236 324.553C151.279 330.391 150.142 337.947 148.999 342.847C147.872 347.666 146.724 349.408 142.147 350.221C137.773 351 130.125 351 125.062 351L125.028 350.992ZM267.238 332.717C267.227 332.943 267.219 333.162 267.217 333.373C267.163 336.261 267.705 338.264 268.872 339.497C269.812 340.489 271.131 340.913 280.557 341.124C290.077 341.337 307.826 341.337 330.294 341.337H358.302C358.278 341.254 358.251 341.172 358.222 341.084C357.667 339.414 355.974 336.168 350.911 333.168C346.775 330.716 340.168 328.3 331.279 325.985C323.698 324.009 316.128 322.579 310.048 321.429C303.951 320.277 297.041 318.97 292.76 318.688C288.856 318.429 287.022 318.944 284.581 320.987C283.617 321.792 282.557 322.835 281.433 323.939C279.706 325.638 277.746 327.561 275.697 329.039C273.097 330.916 270.207 332.167 267.238 332.717ZM516.627 245.96C516.643 245.96 516.659 245.96 516.673 245.96C518.083 245.976 519.375 246.683 520.409 248.008C522.427 250.601 522.825 254.823 521.738 262.128C521.405 264.371 520.921 266.961 520.411 269.7C519.18 276.299 517.784 283.777 517.517 291.029C517.071 303.13 519.872 313.289 521.583 318.272C523.861 324.905 526.761 330.031 530.451 333.949C532.032 335.627 533.744 337.075 535.546 338.262C536.302 336.806 536.628 334.277 536.604 329.567C536.558 320.523 535.333 305.387 533.405 290.067C532.534 283.153 531.503 276.021 530.502 269.122C529.159 259.845 527.891 251.084 527.25 244.386C526.147 232.848 526.895 227.207 528.764 220.252C529.981 215.723 531.685 210.549 533.186 205.982C533.965 203.617 534.7 201.379 535.306 199.424C537.015 193.914 537.755 190.468 537.776 187.902C537.797 185.509 537.202 183.882 535.501 181.679C535.477 181.65 535.456 181.618 535.429 181.586C535.159 181.751 534.887 181.914 534.62 182.074C533.541 182.72 532.523 183.328 531.752 184.075C530.692 185.104 530.054 186.456 529.087 188.505C528.713 189.294 528.291 190.188 527.781 191.196C526.459 193.807 523.522 199.179 518.71 205.796C516.315 209.09 510.139 217.222 504.52 221.55C499.981 225.05 496.216 225.77 491.535 224.039C487.092 222.396 481.906 218.507 475.489 213.173C471.569 209.914 466.763 205.766 460.912 200.589C461.051 203.147 461.142 206.206 461.182 209.751C461.241 214.997 461.201 220.686 460.018 227.477C458.76 234.713 456.392 242.386 452.565 251.622C449.102 259.981 443.903 270.885 436.669 284.959C432.543 292.987 428.581 300.45 425.083 307.032C423.716 309.603 422.428 312.03 421.24 314.282C417.427 321.512 414.172 327.823 412.957 331.791C411.681 335.963 412.776 336.974 414.014 337.411C415.654 337.99 418.613 337.822 422.573 336.92C425.403 336.275 428.76 335.288 432.204 332.845C434.704 331.071 438.215 327.855 440.749 322.6C442.763 318.424 444.154 312.895 445.003 305.699C445.225 303.826 445.403 301.879 445.577 299.999C446.02 295.211 446.44 290.691 447.465 287.519C448.082 285.612 449.972 281.212 454.234 281.212C454.274 281.212 454.311 281.212 454.352 281.212C457.262 281.268 459.273 283.593 460.496 288.325C461.166 290.912 461.652 294.401 462.122 297.775C462.555 300.874 463.001 304.08 463.572 306.384C464.736 311.073 466.368 312.081 468.459 312.15C470.357 312.217 473.476 311.556 478.504 305.109C482.691 299.743 488.699 289.707 495.423 276.854C496.707 274.394 497.965 271.941 499.177 269.567C503.479 261.155 507.196 253.887 510.406 249.942C512.555 247.302 514.646 245.963 516.619 245.963L516.627 245.96ZM245.521 299.041C245.481 299.116 245.406 299.292 245.315 299.69C245.053 300.839 244.821 303.042 244.583 306.627C244.322 310.564 244.1 315.511 244.712 318.858C245.345 322.31 246.885 323.963 248.543 325.486C250.712 327.479 252.837 328.884 255.232 329.908C258.319 331.231 261.724 331.853 264.819 331.669C265.203 331.645 265.588 331.61 265.972 331.562C266.063 330.418 266.218 329.124 266.44 327.684C266.426 327.684 266.413 327.684 266.4 327.684C265.086 327.684 264.082 327.198 263.147 326.166C262.263 325.187 261.406 323.646 260.691 322.208C260.124 322.606 259.516 322.918 258.877 323.131C256.578 323.897 253.564 323.504 251.55 322.182C249.449 320.8 248.984 318.581 248.794 316.391C248.576 313.844 248.698 310.462 249.708 308.611C250.608 306.963 252.341 306.28 254.346 306.79C255.791 307.158 256.781 308.064 257.465 309.646C257.871 310.588 258.18 311.79 258.48 312.953C258.64 313.577 258.808 314.225 258.984 314.818C259.478 316.458 260.103 317.842 261 319.762C261.04 319.851 261.083 319.939 261.126 320.032C261.807 319.253 262.357 318.293 262.72 317.21C263.331 315.388 263.444 313.132 263.064 310.31C262.779 308.179 262.303 306.411 261.727 305.328C261.211 304.36 260.634 303.96 259.438 303.738C258.888 303.637 258.204 303.576 257.481 303.512C256.447 303.418 255.275 303.314 254.175 303.061C252.236 302.615 250.565 301.735 249.15 300.946C248.789 300.743 248.439 300.543 248.103 300.354C247.136 299.802 246.3 299.324 245.764 299.119C245.638 299.071 245.561 299.049 245.515 299.041H245.521ZM258.14 253.935C258.429 255.178 258.832 256.501 259.385 257.89C261.008 261.992 263.916 266.718 266.253 270.516C266.867 271.517 267.449 272.458 267.946 273.296C270.437 277.483 270.955 279.219 271.23 281.758C271.51 284.354 271.51 287.738 271.51 292.862C271.51 297.985 271.51 304.477 271.102 309.305C270.763 313.324 270.154 316.052 269.452 319.213C269.31 319.853 269.163 320.507 269.016 321.187C268.635 322.963 268.311 324.603 268.05 326.102C269.991 325.606 272.386 324.491 274.667 323.024C277.31 321.323 279.812 319.149 281.719 316.903C283.609 314.674 284.99 312.321 286.039 307.483C286.894 303.546 287.497 298.121 288.197 291.838C288.346 290.504 288.499 289.136 288.656 287.749C289.27 282.38 290.48 272.351 291.695 265.497C292.619 260.288 293.519 256.997 294.798 254.14C296.101 251.23 297.452 249.497 299.18 248.521C300.339 247.864 301.671 247.566 302.846 247.299C303.562 247.136 304.24 246.984 304.745 246.776C305.241 246.574 305.548 246.328 305.586 246.101C305.604 245.981 305.591 245.525 304.582 244.653C302.883 243.186 298.907 241.023 293.081 238.399C287.449 235.862 280.977 233.281 277.692 232.262C275.719 231.651 275.083 231.664 274.894 231.704C274.894 231.742 274.894 231.798 274.902 231.88C274.947 232.334 275.121 232.947 275.345 233.726C275.513 234.313 275.703 234.977 275.89 235.758C276.378 237.783 276.779 240.34 276.397 245.312C275.988 250.649 274.739 258.213 273.492 262.907C272.64 266.116 271.225 270.13 269.329 271.021C268.725 271.306 268.263 271.173 267.98 271.01C267.105 270.508 266.453 269.004 265.922 263.072C265.628 259.8 265.382 255.33 265.12 250.598C264.856 245.795 264.581 240.826 264.255 237.233C263.841 232.672 263.339 230.296 262.648 228.453C261.817 228.912 261.091 229.395 260.469 229.901C258.821 231.243 257.532 233.067 256.407 235.646C255.393 237.977 254.704 240.458 254.365 243.021C253.991 245.829 254.018 248.71 254.154 250.324C254.303 252.092 254.586 252.279 255.12 252.476C255.492 252.612 255.988 252.705 256.525 252.727C256.058 250.036 256.09 247.776 256.263 246.117C256.52 243.674 257.072 242.61 258.306 242.194C259.411 241.821 260.899 242.005 261.751 243.637C262.52 245.112 262.76 247.806 262.301 249.771C261.855 251.67 260.691 253.057 259.022 253.679C258.731 253.788 258.434 253.871 258.132 253.93L258.14 253.935ZM253.096 307.963C252.357 307.963 251.443 308.211 250.877 309.249C250.009 310.841 249.929 314.028 250.122 316.277C250.343 318.85 250.949 320.195 252.279 321.069C253.71 322.011 256.293 322.587 258.45 321.87C259.032 321.675 259.588 321.379 260.098 320.992C259.988 320.76 259.884 320.539 259.788 320.331C258.864 318.354 258.221 316.933 257.702 315.204C257.516 314.586 257.347 313.927 257.182 313.289C256.896 312.177 256.597 311.025 256.234 310.177C255.716 308.974 255.051 308.347 254.012 308.083C253.791 308.027 253.465 307.966 253.094 307.966L253.096 307.963ZM147.437 194.988C144.016 196.469 140.902 197.909 138.689 199.421C135.249 201.774 134.077 204.219 132.99 211.325C131.938 218.193 130.966 229.888 130.456 241.85C129.893 255.036 130.034 265.281 130.878 272.295C131.813 280.054 133.693 284.836 137.578 289.352C141.359 293.745 147.121 297.988 152.991 300.703C158.614 303.306 164.198 304.437 172.9 304.738C181.405 305.035 192.874 304.536 199.931 303.952C206.797 303.381 209.058 302.759 210.642 301.879C212.182 301.021 213.101 299.916 213.713 298.185C213.899 297.655 214.06 297.06 214.228 296.43C214.647 294.867 215.122 293.096 216.228 291.499C216.73 290.773 217.349 290.099 218.012 289.49C217.908 288.917 217.825 288.277 217.758 287.565C217.491 284.711 217.51 280.566 218.356 277.491C218.909 275.48 219.817 273.898 220.621 272.749C219.715 272.688 218.714 272.597 217.55 272.49C215.467 272.298 212.874 272.061 209.392 271.869C205.392 271.647 200.148 271.479 195.079 271.317C190.959 271.186 186.7 271.05 183.207 270.887C174.94 270.5 170.775 269.924 167.96 267.529C165.167 265.153 163.923 261.219 163.37 253.004C163.207 250.601 163.106 247.859 162.996 244.955C162.764 238.7 162.497 231.614 161.538 225.647C159.992 216.038 156.566 209.351 154.123 205.158C152.174 201.814 150.128 198.866 148.483 196.501C148.115 195.967 147.762 195.463 147.439 194.988H147.437ZM231.51 290.995C233.523 290.995 235.643 291.363 238.308 292.158C239.27 292.446 240.266 292.774 241.32 293.126C243.614 293.889 245.988 294.675 248.076 295.019C250.92 295.489 253.283 295.166 255.978 293.939C257.745 293.134 260.982 291.309 262.811 288.133C264.226 285.674 264.864 282.193 264.52 278.825C264.197 275.651 263.07 273.357 260.974 271.607C258.776 269.772 255.366 268.428 251.614 267.916C248.335 267.471 244.535 267.66 240.623 268.463C237.673 269.071 234.971 269.964 232.583 270.751C232.145 270.895 231.715 271.037 231.296 271.175C228.594 272.053 226.111 272.784 223.045 272.829C222.775 272.834 222.5 272.829 222.22 272.826C221.368 273.92 220.268 275.571 219.643 277.846C218.845 280.75 218.831 284.708 219.088 287.445C219.122 287.815 219.163 288.165 219.208 288.496C220.324 287.645 221.419 287.005 222.148 286.65C222.773 286.346 223.494 286.055 224.119 286.447C224.858 286.911 225.075 287.957 225.075 291.112C225.075 291.4 225.075 291.71 225.069 292.038C226.567 291.656 228.263 291.227 229.985 291.067C230.492 291.019 231 290.995 231.515 290.995H231.51ZM219.478 289.987C219.71 290.949 220.014 291.643 220.399 292.083C220.858 292.611 221.424 292.838 223.099 292.507C223.293 292.47 223.504 292.422 223.726 292.371C223.734 291.918 223.737 291.496 223.737 291.112C223.737 288.584 223.568 287.794 223.416 287.591C223.344 287.597 223.163 287.639 222.73 287.85C221.763 288.32 220.567 289.08 219.478 289.987ZM370.684 210.402C370.497 210.802 370.195 211.623 369.731 213.322C368.922 216.28 367.675 221.689 366.353 227.415L365.386 231.595C363.814 238.385 362.185 245.408 361.739 250.289C361.309 254.996 361.923 257.792 364.003 260.608C366.097 263.441 369.362 265.99 373.191 267.783C377.368 269.738 382.19 270.775 386.094 270.559C389.795 270.354 393.189 269.031 396.471 266.513C399.36 264.299 401.897 261.349 403.619 258.208C405.4 254.959 406.241 251.606 407.093 246.907C407.392 245.261 407.697 243.413 407.99 241.541C406.575 241.069 405.785 240.388 405.387 239.194C404.845 237.569 405.018 235.028 405.985 230.419C406.802 226.525 408.239 220.865 410.503 212.605C410.933 211.042 411.376 209.431 411.825 207.809C413.43 202.008 415.088 196.01 416.223 191.268C417.892 184.283 418.26 180.717 418.276 178.956C418.298 176.697 417.766 176.628 417.51 176.593C417.221 176.556 416.346 176.439 414.77 180.119C413.157 183.893 410.973 191.353 409.05 198.05C406.629 206.489 404.444 214.416 401.961 223.748C401.635 224.972 401.304 226.229 400.965 227.504C398.492 236.841 395.691 247.422 393.611 253.164C391.347 259.41 389.76 260.552 388.073 260.341C386.273 260.117 385.798 258.594 385.598 257.471C385.285 255.722 385.379 253.095 385.873 249.665C386.481 245.429 387.664 240.428 389.59 233.929C391.17 228.597 393.376 221.839 395.323 215.877C396.092 213.522 396.821 211.287 397.456 209.314C399.697 202.342 400.762 198.597 401.518 194.999C402.41 190.772 402.709 187.478 402.487 184.323C402.359 182.482 402.038 180.581 401.731 178.74C401.422 176.903 401.13 175.166 401.013 173.483C400.767 169.949 401.325 166.895 402.442 162.497C403.005 160.276 405 152.709 406.994 148.567C408.69 145.046 410.343 144.11 412.805 143.614C415.056 143.161 418.02 143.027 420.402 142.921H420.471C422.813 142.814 424.362 142.745 425.542 140.974C426.877 138.971 427.788 134.748 428.754 129.841C428.883 129.185 429.016 128.507 429.15 127.819C430.105 122.909 431.19 117.343 432.495 113.558C434.036 109.093 435.892 107.053 439.841 105.474C443.286 104.098 448.309 103.095 452.343 102.287L453.542 102.047C457.796 101.188 460.17 100.612 462.992 99.4596C464.231 98.9528 465.43 98.3927 466.517 97.8166C466.191 97.1738 465.863 96.6164 465.615 96.2136C464.894 95.0454 464.496 94.64 463.767 94.3173C462.944 93.9573 461.647 93.7252 457.988 93.7759C454.098 93.8292 447.721 94.1973 442.917 94.8801C438.068 95.5682 434.808 96.5684 432.351 98.1233C429.804 99.7343 428.124 102.039 425.937 106.922C423.945 111.371 421.537 117.969 419.601 123.272C419.267 124.187 418.946 125.061 418.65 125.87C416.602 131.439 415.499 134.127 413.518 136.519C412.177 138.138 410.463 139.592 408.949 140.875C408.231 141.483 407.552 142.059 407.01 142.574C405.414 144.089 404.904 145.188 403.368 150.407C403.152 151.149 402.914 151.968 402.658 152.848C401.024 158.502 398.786 166.245 396.388 171.368C395.622 173.006 394.845 174.358 394.065 175.486C395.648 175.972 396.986 176.692 397.988 177.617C399.563 179.068 400.391 181.058 400.444 183.533C400.498 185.883 399.806 187.79 398.391 189.203C396.837 190.756 394.292 191.831 391.032 192.316C387.95 192.775 383.929 192.729 380.783 192.207C377.71 191.695 375.587 190.74 374.479 189.363C373.381 188.006 373.253 186.166 374.147 184.675C374.946 183.346 376.447 182.445 378.871 181.831C379.555 181.658 380.302 181.511 381.095 181.357C382.887 181.005 384.922 180.607 386.914 179.772C388.401 179.148 390.046 178.225 391.726 176.313C391.026 176.201 390.289 176.132 389.52 176.105C385.905 175.977 381.485 176.783 377.982 178.212C374.633 179.578 371.664 181.687 369.838 184.003C368.268 185.992 367.704 187.958 368.257 189.537C368.727 190.878 370.059 192.14 372.329 193.399C372.94 193.738 373.579 194.052 374.196 194.359C375.571 195.039 376.868 195.682 377.742 196.506C379.197 197.88 379.333 199.587 378.479 205.641C377.611 211.773 375.68 222.455 374.348 228.501C372.965 234.774 372.158 236.398 371.232 237.087C370.577 237.572 370.017 237.46 369.741 237.348C369.069 237.079 368.617 236.294 368.404 235.02C368.091 233.171 368.219 230.011 368.783 225.629C369.037 223.66 369.376 221.468 369.704 219.345C370.091 216.835 370.457 214.467 370.62 212.864C370.759 211.477 370.732 210.762 370.681 210.399L370.684 210.402ZM173.002 181.914C173.012 181.946 173.026 181.975 173.036 182.007C173.49 183.288 173.797 185.269 174.07 187.016C174.171 187.678 174.27 188.305 174.369 188.857C174.727 190.849 175.05 191.575 176.382 192.239C177.226 192.66 178.465 193.033 179.664 193.393C180.689 193.703 181.659 193.994 182.396 194.316C184.417 195.202 184.617 196.413 184.278 198.208C184.169 198.794 183.995 199.477 183.811 200.2C183.456 201.598 183.055 203.179 183.029 204.414C182.991 206.129 183.688 207.279 185.215 209.791L185.944 210.991C187.547 213.637 189.969 217.635 193.864 223.735C194.516 224.754 195.208 225.834 195.931 226.959C200.073 233.409 205.224 241.437 208.821 248.059C211.985 253.882 213.921 258.544 215.333 261.947C215.79 263.048 216.185 264.001 216.532 264.766C217.777 267.521 218.121 267.652 221.139 266.529C224.388 265.318 230.468 262.504 233.814 260.045C236.933 257.754 237.67 255.829 238.143 252.385C238.597 249.065 238.816 244.435 239.117 238.028L239.16 237.105C239.483 230.275 239.884 221.775 239.78 216.366C239.678 211.061 239.088 208.852 237.961 206.412C236.527 203.307 234.856 201.11 232.698 199.499C230.965 198.202 228.701 197.154 226.303 196.042C225.021 195.447 223.697 194.834 222.346 194.138C219.916 192.884 217.472 191.401 215.317 190.094C213.958 189.27 212.783 188.558 211.819 188.027C209.819 186.928 209.288 186.952 209.152 187.014C209.12 187.027 209.069 187.12 209.034 187.286C208.826 188.238 209.221 190.51 210.377 193.009C211.058 194.479 211.99 196.002 213.168 197.928C213.99 199.269 214.92 200.789 215.969 202.624C218.749 207.481 221.974 213.84 224.818 220.068C227.224 225.335 230.444 232.902 232.119 239.031C233.414 243.77 233.86 247.856 233.483 251.521C233.155 254.722 232.266 256.73 230.41 258.45C228.428 260.288 225.454 261.696 223.384 262.272C220.917 262.963 219.229 262.59 217.913 261.061C216.594 259.533 215.627 256.821 214.084 251.686C213.75 250.577 213.389 249.35 212.994 248.011C211.582 243.213 209.646 236.638 207.064 229.05C202.735 216.331 198.548 206.481 194.623 199.771C190.951 193.492 186.591 188.331 181.296 183.989C177.667 181.013 176.283 180.621 175.002 180.941C174.396 181.093 173.757 181.434 172.999 181.919L173.002 181.914ZM259.297 243.362C259.099 243.362 258.909 243.402 258.741 243.461C258.37 243.586 257.863 243.757 257.601 246.259C257.435 247.848 257.406 250.027 257.871 252.628C258.108 252.58 258.341 252.516 258.562 252.433C259.817 251.967 260.664 250.942 261.008 249.47C261.393 247.83 261.193 245.443 260.576 244.253C260.218 243.565 259.74 243.36 259.299 243.36L259.297 243.362ZM53.6328 247.894C53.6328 247.894 53.7423 248.142 54.498 248.441C55.9613 249.017 58.9333 249.441 61.1897 249.126C62.2685 248.974 63.2191 248.657 64.2658 247.822C62.5729 247.704 60.9413 247.614 59.478 247.55C55.6516 247.379 54.0921 247.443 53.7209 247.782C53.6569 247.84 53.6355 247.883 53.6328 247.894ZM409.499 240.57C410.159 240.714 410.976 240.853 411.99 240.994C416.295 241.594 423.155 242.157 429.497 241.927C435.515 241.709 441.59 240.727 445.753 239.295C449.63 237.961 451.409 236.35 452.808 232.91C454.437 228.898 455.329 222.999 455.195 217.131C455.046 210.613 453.66 203.494 451.663 198.994C449.414 193.922 446.402 192.167 445.532 191.751C444.923 191.46 444.69 191.478 444.605 191.516C444.285 191.657 443.954 192.753 443.812 193.22C443.179 195.311 442.333 198.992 441.518 202.584L441.406 203.073C440.541 206.889 439.646 210.837 438.589 213.797C437.553 216.702 436.293 218.881 433.224 220.756C430.471 222.439 426.148 223.988 422.207 224.706C420.356 225.042 418.653 225.183 417.149 225.306C415.633 225.431 414.322 225.54 413.443 225.815C412.039 226.255 411.643 227.111 410.952 231.2C410.679 232.819 410.362 234.899 410.028 237.1C409.857 238.22 409.681 239.388 409.496 240.564L409.499 240.57ZM270.699 224.468C271.105 224.468 271.513 224.5 271.932 224.567C273.577 224.831 275.305 225.613 277.39 226.607L277.599 226.706C279.361 227.549 281.358 228.501 282.846 228.634C284.293 228.765 285.204 228.12 285.791 226.546C286.419 224.871 286.702 221.881 286.499 219.105C286.309 216.512 285.695 214.485 284.309 211.879C283.23 209.85 280.928 206.065 277.636 203.539C274.301 200.984 270.418 200.053 267.751 199.725C265.51 199.448 263.379 199.501 261.716 199.571C261.532 200.232 261.275 200.875 260.934 201.576C260.664 202.128 260.346 202.71 260.007 203.329C259.249 204.715 258.389 206.289 257.871 207.929C257.083 210.418 257.131 212.965 258.02 215.717C258.827 218.225 260.362 221.046 261.713 223.54C262.004 224.076 262.285 224.594 262.546 225.084C262.824 225.607 263.083 226.106 263.323 226.618C264.285 226.165 265.347 225.738 266.501 225.34C268.047 224.81 269.356 224.468 270.696 224.468H270.699ZM83.3449 111.675C83.3449 111.675 83.3369 111.675 83.3315 111.675C83.2167 111.68 83.0965 111.819 83.0138 111.931C82.2501 112.987 81.6626 116.463 81.19 119.722C80.4743 124.661 79.7293 131.297 79.3368 136.237C79.2273 137.605 79.1419 138.891 79.0591 140.136C78.8108 143.846 78.5945 147.052 77.9189 150.791C77.6252 152.424 77.2406 154.157 76.8321 155.995C75.9776 159.854 75.0083 164.228 74.3781 169.72C73.5851 176.623 73.2513 186.088 73.3581 198.656C73.4409 208.465 73.7533 218.59 75.4783 226.167C75.6545 226.941 75.8441 227.688 76.0497 228.41C76.5544 227.274 77.0137 226.173 77.4062 225.14C79.5184 219.595 79.6279 216.355 79.6279 211.53C79.6279 206.705 79.5317 200.419 79.3288 192.172L79.2941 190.804C79.0805 182.336 78.8161 171.795 79.6519 164.026C80.6292 154.931 83.1873 149.804 85.5585 145.993C87.8389 142.328 90.5653 139 92.7549 136.327C93.313 135.647 93.8337 135.013 94.2956 134.431C96.3945 131.801 97.3825 130.22 97.6041 129.145C97.7723 128.321 97.4946 127.809 95.8524 125.918C95.2623 125.237 94.5093 124.395 93.7135 123.501C92.2449 121.853 90.5786 119.986 89.2221 118.354C88.2048 117.132 87.3796 116.062 86.6533 115.121C85.8816 114.121 85.2701 113.331 84.7147 112.721C83.8682 111.792 83.4811 111.68 83.3449 111.68V111.675ZM460.8 198.701C467.097 204.283 472.218 208.711 476.346 212.146C482.659 217.392 487.738 221.212 492.002 222.788C496.195 224.338 499.586 223.674 503.711 220.497C509.191 216.275 515.274 208.263 517.634 205.014C522.39 198.472 525.29 193.172 526.593 190.596C527.095 189.606 527.514 188.721 527.883 187.939C528.876 185.837 529.592 184.32 530.825 183.122C531.706 182.266 532.841 181.589 533.939 180.933C534.15 180.807 534.363 180.679 534.574 180.551C533.18 178.948 530.732 176.492 527.357 174.465C524.158 172.544 520.069 171.038 516.419 170.432C513.34 169.923 510.934 170.147 509.06 171.112C507.338 172 506.013 173.499 504.336 176.46C503.484 177.961 502.555 179.815 501.658 181.605C500.809 183.301 500.005 184.901 499.255 186.248C497.725 188.99 496.355 190.788 494.248 191.268C492.259 191.724 489.885 191.044 481.759 185.955C474.05 181.127 460.712 172.043 452.269 166.047C448.429 163.322 445.823 161.385 443.847 159.865C443.241 161.484 442.717 163.252 442.285 165.162C441.462 168.776 441.195 171.683 441.465 174.049C441.652 175.694 441.964 176.471 444.725 178.706C446.191 179.892 448.341 181.477 450.418 183.01C452.317 184.411 454.279 185.856 455.721 187.003C458.814 189.457 459.799 190.74 460.368 194.511C460.539 195.637 460.683 197.037 460.8 198.704V198.701ZM259.478 185.808C259.235 186.422 259.07 187.536 258.95 189.339C258.789 191.767 258.701 195.554 258.672 196.799C258.658 197.405 258.642 198.093 258.736 198.232C258.757 198.245 258.904 198.314 259.564 198.314C259.86 198.314 260.221 198.301 260.629 198.285C260.76 197.472 260.789 196.565 260.755 195.397C260.669 192.612 260.189 188.521 259.727 186.638C259.633 186.259 259.548 185.992 259.476 185.808H259.478ZM420.949 147.404C418.605 147.404 416.503 147.959 414.845 149.018C413.107 150.127 411.98 151.727 411.08 154.368C410.108 157.219 409.451 161.153 409.232 163.788C409 166.583 409.237 168.096 410.049 169.011C410.888 169.955 412.463 170.437 415.462 171.107C416.057 171.24 416.701 171.379 417.382 171.526C420.055 172.102 423.384 172.819 426.533 173.766C429.804 174.748 433.806 176.214 438.666 179.642C442.661 182.458 447.235 186.563 453.022 191.759L454.789 193.345C456.373 194.764 457.895 196.125 459.356 197.424C459.265 196.378 459.161 195.471 459.046 194.708C458.539 191.337 457.751 190.316 454.891 188.049C453.465 186.918 451.513 185.477 449.625 184.085C447.534 182.544 445.374 180.949 443.884 179.746C440.949 177.369 440.373 176.278 440.138 174.203C439.852 171.686 440.127 168.632 440.984 164.868C441.465 162.748 442.055 160.796 442.747 159.011C441.518 158.046 440.541 157.251 439.612 156.491L438.819 155.846C436.268 153.773 433.291 151.429 430.242 149.86C427.377 148.388 424.282 147.521 421.529 147.415C421.334 147.407 421.139 147.404 420.949 147.404ZM170.449 181.399C169.752 181.399 168.63 181.637 166.756 182.229C162.414 183.597 154.467 186.71 150.214 188.481C148.198 189.321 146.756 189.958 146.571 190.516C146.478 190.798 146.66 191.289 147.175 192.156C147.383 192.503 147.637 192.897 147.925 193.332C148.483 193.092 149.049 192.852 149.618 192.609C150.777 192.116 151.976 191.607 153.148 191.094C158.905 188.579 164.155 185.958 167.554 183.901C168.876 183.101 169.923 182.384 170.849 181.751C170.956 181.677 171.063 181.605 171.167 181.533C170.994 181.445 170.764 181.394 170.449 181.394V181.399ZM393.224 176.636C391.218 179.13 389.232 180.263 387.443 181.013C385.323 181.903 383.221 182.314 381.365 182.677C380.591 182.829 379.856 182.973 379.21 183.136C377.178 183.648 375.899 184.379 375.304 185.371C374.689 186.392 374.778 187.603 375.528 188.534C376.414 189.63 378.31 190.449 381.015 190.897C384.033 191.398 387.891 191.441 390.847 191.001C393.825 190.558 396.11 189.614 397.459 188.267C398.623 187.104 399.165 185.568 399.122 183.568C399.074 181.469 398.393 179.799 397.093 178.602C396.14 177.724 394.818 177.055 393.224 176.631V176.636ZM444.365 158.577C446.362 160.124 449.024 162.105 453.046 164.962C461.473 170.944 474.784 180.012 482.472 184.827C490.109 189.609 492.397 190.324 493.952 189.969C495.372 189.643 496.494 188.459 498.088 185.6C498.825 184.28 499.621 182.69 500.464 181.01C501.37 179.204 502.307 177.337 503.175 175.804C504.993 172.595 506.472 170.947 508.448 169.928C510.587 168.824 513.268 168.557 516.641 169.117C520.449 169.747 524.713 171.318 528.048 173.321C531.674 175.497 534.278 178.151 535.712 179.823C536.07 179.578 536.411 179.319 536.729 179.044C538.235 177.735 539.434 175.868 540.379 171.014C541.197 166.815 541.923 159.841 541.586 154.453C541.285 149.61 540.136 146.473 537.629 143.63C535.605 141.334 532.681 139.235 530.331 137.546C529.808 137.17 529.309 136.813 528.847 136.471C526.398 134.666 524.612 133.159 523.955 130.166C523.49 128.054 523.57 125.256 523.688 121.021C523.722 119.812 523.76 118.49 523.789 117.036C523.915 110.696 523.875 101.567 523.386 94.9494C522.921 88.6683 522.056 84.4249 520.398 80.2988C518.846 76.4342 516.633 72.7268 514.323 70.1237C511.968 67.4699 509.583 66.059 506.726 64.7628C503.199 63.1598 499.522 62.0103 496.371 61.5302C492.504 60.9408 489.209 61.3382 486 62.7811C482.531 64.3414 478.715 67.3445 475.791 70.8172C472.79 74.3778 470.811 78.2745 469.676 80.9123C468.517 83.6168 468.13 85.2891 467.884 86.6973C467.652 88.0202 467.585 88.847 467.818 89.9672C468.01 90.8927 468.418 92.0422 468.779 93.0558C468.883 93.3465 468.982 93.6292 469.075 93.8986C469.324 94.6187 469.527 95.2775 469.572 95.9523C469.986 95.6456 470.341 95.3495 470.624 95.0721C471.868 93.8452 471.85 92.8317 471.82 91.1488C471.818 90.9861 471.815 90.818 471.812 90.6473C471.791 88.7403 471.903 85.9265 472.269 83.7448C472.635 81.5817 473.257 80.1548 474.934 77.6397C476.055 75.9594 479.025 71.7453 482.381 68.8622C485.054 66.5684 488.101 65.0535 491.439 64.3627C494.368 63.7573 497.244 63.8159 499.992 64.5414C502.675 65.2508 505.137 66.5658 507.741 68.6808C510.555 70.9665 513.185 73.911 515.145 76.9676C517.557 80.7282 518.953 84.7103 519.816 90.2846C520.622 95.5069 521.084 103.076 521.191 112.782C521.271 120.151 521.178 127.851 519.148 133.89C517.629 138.408 515.079 141.907 512.125 145.961C511.271 147.132 510.39 148.343 509.492 149.634C507.949 151.855 506.384 154.277 504.731 156.84C502.179 160.796 499.538 164.884 496.851 168.392C492.048 174.665 487.57 178.554 484.979 180.103C483.335 181.085 482.077 181.357 481.132 180.93C480.365 180.583 479.866 179.802 479.644 178.607C479.177 176.081 480.088 172.336 482.509 166.823C484.202 162.967 486.787 157.91 489.289 153.018C490.851 149.962 492.467 146.799 493.799 144.057C497.06 137.341 498.929 132.535 500.464 126.91C501.986 121.341 503.095 115.385 503.671 109.693C504.221 104.252 504.334 98.5341 504.01 92.2129C503.735 86.804 503.14 80.8643 502.416 76.3221C501.797 72.4254 501.129 69.9637 500.32 68.5741C499.655 67.4352 498.996 67.1552 498.787 67.1552C498.787 67.1552 498.782 67.1552 498.779 67.1552C498.528 67.7233 498.862 70.8225 498.974 71.8574C499.068 72.7242 499.185 73.727 499.316 74.8445C499.85 79.4294 500.585 85.7078 500.86 92.277C501.175 99.8276 500.886 108.418 500.088 115.254C499.313 121.864 498.171 125.8 497.257 128.491C496.197 131.625 495.215 133.671 493.065 135.506C490.587 137.618 486.841 139.163 484.827 139.893C481.858 140.971 479.348 141.515 477.748 141.427C475.909 141.323 475.222 140.299 474.87 138.544C472.651 139.925 469.671 141.347 465.876 142.833C464.998 143.177 464.109 143.513 463.166 143.867C458.4 145.662 453 147.697 449.425 151.023C447.395 152.912 445.705 155.443 444.37 158.587L444.365 158.577ZM174.871 131.412C173.229 131.412 172.331 131.689 171.853 131.951C171.165 132.324 170.521 133.025 170.449 135.586C170.387 137.832 170.761 141.206 171.506 145.086C172.006 147.689 173.079 152.648 174.673 156.59C175.982 159.825 177.466 161.972 181.581 166.573C185.667 171.144 192.249 178.017 196.399 181.757C200.5 185.451 201.974 185.837 202.957 185.709C203.867 185.587 204.623 185.005 205.582 182.485C205.915 181.605 206.265 180.514 206.634 179.362C206.981 178.276 207.349 177.121 207.747 176.02C206.981 174.964 206.263 173.889 205.611 172.918C205.069 172.107 204.556 171.342 204.105 170.717C202.452 168.434 201.509 167.904 199.245 166.975C198.919 166.842 198.569 166.701 198.198 166.551C195.835 165.605 192.601 164.308 189.83 162.404C186.676 160.241 184.094 157.312 181.934 153.453C180.74 151.319 179.757 149.042 179.004 147.063C177.704 147.401 176.185 147.135 175.015 146.23C173.189 144.82 172.259 141.878 172.15 139.589C172.038 137.269 172.745 135.194 173.87 134.543C174.283 134.303 174.748 134.255 175.213 134.399C175.942 134.626 176.636 135.338 177.117 136.351C177.466 137.088 177.667 137.917 177.942 139.061C178.134 139.861 178.374 140.856 178.735 142.083C178.938 142.774 179.274 143.873 179.741 145.196C179.795 145.145 179.846 145.094 179.891 145.038C180.769 144.003 180.62 141.843 180.313 138.904L180.235 138.173C180.006 135.994 179.752 133.607 179.784 131.465C178.663 131.676 177.723 131.596 176.743 131.511C176.521 131.492 176.294 131.473 176.062 131.457C175.627 131.428 175.231 131.415 174.874 131.415L174.871 131.412ZM229.245 154.445C229.31 154.445 229.376 154.445 229.44 154.445C231.283 154.467 233.539 154.768 236.535 155.397C239.187 155.955 242.191 156.707 244.346 158.057C246.407 159.345 247.729 161.241 248.389 163.847C248.952 166.074 249.072 168.992 248.712 171.654C248.57 172.697 248.362 173.641 248.143 174.638C247.847 175.98 247.542 177.364 247.326 179.258C247.24 180.015 247.168 180.847 247.107 181.802C247.446 181.791 247.788 181.781 248.127 181.77C250.805 181.685 253.334 181.602 254.981 181.463C257.003 181.293 257.286 181.159 257.743 179.263C258.234 177.225 258.771 173.139 258.792 168.981C258.813 164.711 258.287 160.838 257.267 157.779C256.18 154.525 254.466 152.008 252.306 150.498C249.841 148.775 246.818 148.314 244.714 148.228C242.578 148.143 240.626 148.415 238.904 148.655C238.543 148.706 238.191 148.754 237.852 148.799C235.788 149.066 234.127 149.146 231.74 148.754C230.089 148.482 228.084 147.983 226.314 147.543C225.536 147.348 224.799 147.167 224.156 147.017C221.958 146.511 220.952 146.441 219.67 146.711C218.22 147.015 216.527 147.756 215.731 148.295C215.002 148.788 215.042 149.058 215.077 149.274C215.12 149.554 215.245 149.903 216.233 150.802C217.291 151.762 219.104 153.154 220.583 153.939C222.092 154.739 223.205 154.867 224.415 154.811C224.93 154.787 225.488 154.728 226.079 154.661C227.01 154.56 228.063 154.445 229.245 154.445ZM498.769 65.8163C499.572 65.8163 500.611 66.4164 501.471 67.894C502.379 69.4516 503.076 71.9854 503.733 76.1034C504.462 80.6882 505.065 86.6813 505.343 92.1356C505.669 98.5261 505.557 104.308 504.998 109.819C504.414 115.585 503.292 121.613 501.751 127.254C500.192 132.964 498.299 137.834 495.001 144.63C493.663 147.385 492.045 150.554 490.478 153.618C487.986 158.494 485.409 163.535 483.732 167.354C481.423 172.611 480.541 176.108 480.958 178.359C481.094 179.1 481.34 179.554 481.682 179.708C482.178 179.932 483.105 179.663 484.293 178.954C486.664 177.537 491.097 173.707 495.791 167.578C498.446 164.111 501.07 160.046 503.61 156.112C505.271 153.538 506.841 151.109 508.398 148.868C509.303 147.564 510.189 146.348 511.047 145.172C513.936 141.208 516.43 137.784 517.882 133.46C519.848 127.617 519.933 120.045 519.856 112.79C519.752 103.146 519.292 95.6402 518.497 90.4793C517.666 85.0997 516.328 81.2723 514.024 77.6797C512.139 74.7379 509.607 71.908 506.902 69.7076C504.451 67.7179 502.149 66.4831 499.655 65.8243C497.11 65.1522 494.44 65.0988 491.717 65.6616C488.56 66.315 485.794 67.6913 483.257 69.8677C480.026 72.6415 477.14 76.7409 476.05 78.3732C474.475 80.7336 473.922 81.9871 473.591 83.9608C473.238 86.0572 473.132 88.7803 473.153 90.6287C473.153 90.7967 473.158 90.9621 473.161 91.1221C473.193 92.9491 473.217 94.392 471.567 96.019C470.971 96.6031 470.17 97.2005 469.27 97.7766C469.094 98.2033 468.84 98.6461 468.549 99.1022C468.744 99.6223 468.91 100.161 469.025 100.694C469.444 102.617 469.198 104.426 468.934 105.973L468.851 106.455C468.64 107.672 468.456 108.723 468.648 109.36C468.779 109.797 469.134 110.243 471.826 110.478C474.659 110.726 479.273 110.686 483.305 110.381C485.201 110.237 487.084 110.027 488.745 109.843C490.889 109.603 492.747 109.397 494.016 109.397C494.034 109.397 494.053 109.397 494.072 109.397C495.519 109.405 496.363 109.693 496.726 110.307C496.905 110.608 497.036 111.115 496.651 111.822C496.045 112.939 494.6 113.763 491.97 114.494C490.83 114.812 489.431 115.118 487.951 115.444C485.738 115.929 483.449 116.431 481.917 116.996C479.567 117.863 479.196 118.751 479.214 120.546C479.228 121.864 479.484 123.573 479.756 125.384C479.895 126.31 480.039 127.264 480.149 128.174C480.472 130.83 480.563 133.423 478.178 135.946C477.62 136.538 476.921 137.133 476.077 137.733C476.405 139.904 476.931 140.043 477.815 140.093C479.22 140.173 481.602 139.643 484.363 138.64C486.291 137.938 489.871 136.469 492.189 134.492C494.104 132.86 495.001 130.974 495.986 128.065C496.875 125.435 497.994 121.586 498.755 115.1C499.548 108.328 499.834 99.8143 499.522 92.3303C499.249 85.8118 498.52 79.56 497.986 74.9966C497.855 73.8737 497.738 72.8655 497.645 71.9987C497.164 67.5446 497.191 66.283 498.304 65.899C498.446 65.851 498.603 65.8243 498.769 65.8243V65.8163ZM174.695 135.65C174.641 135.65 174.59 135.666 174.537 135.695C174.051 135.978 173.378 137.389 173.48 139.525C173.573 141.443 174.345 144.03 175.827 145.174C176.652 145.812 177.677 145.969 178.532 145.785C178.027 144.363 177.664 143.185 177.448 142.451C177.082 141.195 176.836 140.184 176.639 139.371C176.38 138.304 176.193 137.53 175.904 136.917C175.533 136.13 175.082 135.754 174.812 135.669C174.769 135.655 174.729 135.647 174.695 135.647V135.65ZM36.4577 67.8006C35.3442 67.8006 33.6219 69.0062 32.2307 70.0677C30.2333 71.5933 28.6071 73.0789 27.766 74.1431C26.9409 75.1886 26.7513 75.9221 26.9515 77.2823C26.9969 77.5837 27.0583 77.9091 27.1304 78.2851C27.3895 79.6507 27.7473 81.5231 27.6431 84.4036C27.515 87.9562 26.6765 93.1838 25.3387 98.7448C24.8687 100.697 24.3374 102.692 23.8247 104.62C22.8901 108.133 22.0062 111.451 21.5042 114.404C20.6444 119.466 21.0796 122.6 22.9622 124.877C25.0236 127.371 29.1145 129.051 35.9423 131.284C42.4364 133.404 51.8411 136.186 57.1469 137.282C62.0548 138.296 62.6957 137.765 63.5262 134.85C64.5035 131.42 65.4354 124.944 66.1136 120.215L66.2979 118.932C66.9575 114.337 67.5262 110.371 68.2312 106.407C68.4181 105.362 68.6104 104.338 68.8053 103.343C68.5276 103.46 68.2445 103.578 67.9535 103.69C65.1604 104.762 62.0629 105.285 59.2244 105.162C55.5928 105.005 52.781 103.884 51.51 102.084C50.0867 100.07 50.4472 97.3259 51.3311 91.7995C51.8357 88.6497 52.506 84.6009 53.0961 81.027C53.4833 78.6825 53.8411 76.5275 54.0975 74.9432C54.3752 73.2309 54.6395 71.612 54.5407 71.2012C54.5167 71.1959 54.4793 71.1879 54.4259 71.1772C54.0547 71.5506 53.6862 71.9027 53.3444 72.2067C51.9799 73.4203 50.7837 74.1137 48.6955 74.0924C46.8397 74.0711 44.1748 73.5056 42.359 72.7508C40.4791 71.9667 39.686 71.0279 38.9143 69.9663C38.8422 69.8703 38.7728 69.769 38.7007 69.6703C38.0598 68.7768 37.3976 67.854 36.5592 67.798C36.5271 67.798 36.4951 67.7953 36.463 67.7953L36.4577 67.8006ZM467.607 100.516C467.31 100.961 467.017 101.42 466.742 101.905C465.818 103.54 465.201 105.33 465.009 106.946C464.787 108.813 465.15 110.232 466.157 111.406C467.11 112.521 468.736 113.526 470.045 114.332C470.362 114.526 470.659 114.713 470.926 114.884C472.445 115.865 473.057 116.545 473.682 118.647C474.336 120.845 474.95 124.301 475.286 127.667C475.457 129.385 475.567 131.126 475.671 132.809C475.746 134.02 475.818 135.189 475.909 136.189C476.419 135.794 476.854 135.405 477.214 135.021C479.209 132.911 479.134 130.828 478.833 128.326C478.726 127.435 478.581 126.488 478.445 125.574C478.168 123.717 477.903 121.962 477.887 120.551C477.866 118.346 478.443 116.849 481.463 115.737C483.081 115.14 485.415 114.628 487.674 114.134C489.134 113.814 490.515 113.51 491.62 113.203C493.781 112.603 495.081 111.923 495.484 111.182C495.543 111.072 495.562 111.003 495.567 110.971C495.495 110.915 495.167 110.731 494.069 110.726C492.873 110.718 491.033 110.926 488.897 111.163C487.225 111.35 485.329 111.56 483.409 111.704C479.313 112.016 474.611 112.054 471.711 111.8C469.292 111.59 467.807 111.184 467.372 109.739C467.089 108.797 467.297 107.602 467.537 106.221L467.62 105.743C467.874 104.255 468.09 102.66 467.722 100.972C467.69 100.82 467.649 100.668 467.609 100.516H467.607ZM79.6225 82.8966C79.4596 83.8968 79.2807 84.8543 79.0911 85.7158C78.8909 86.6306 78.6746 87.4681 78.4823 88.2069C78.0364 89.9272 77.6839 91.2874 77.78 92.6317C77.9136 94.4853 78.9443 96.5257 84.4424 103.114C89.6948 109.408 99.6735 120.61 105.799 127.086C111.594 133.212 113.116 134.234 117.444 134.908C122.077 135.629 129.458 135.845 135.388 135.437C141.095 135.042 146.166 134.012 149.303 132.612C150.828 131.932 151.816 131.193 152.579 130.214C152.176 128.411 151.84 126.574 151.666 124.904C151.282 121.17 151.68 118.252 152.996 115.145C154.102 112.539 155.634 110.227 157.821 107.869C158.839 106.773 159.973 105.687 161.074 104.639C162.27 103.5 163.397 102.423 164.12 101.556C165.413 100.012 165.295 99.3502 164.516 98.3634C163.245 96.7577 160.585 95.2721 156.382 93.8212C153.84 92.9437 150.393 91.9756 146.961 91.1408C146.654 91.6022 146.275 92.1063 145.816 92.6717C143.744 95.2215 139.949 99.1768 137.274 101.932C134.48 104.81 132.809 106.479 130.945 107.344C128.774 108.349 126.63 108.01 123.992 106.247C121.062 104.29 117.401 100.54 112.798 94.7787C110.128 91.4395 107.06 87.3134 104.355 83.6728C102.248 80.8376 100.258 78.1625 98.7843 76.2981C95.9672 72.7375 95.1047 72.2494 94.0046 72.5508C93.7776 73.807 93.2142 75.0766 92.3223 76.3435C90.9044 78.3545 88.5038 80.5362 86.7254 81.9071C85.2007 83.086 84.154 83.6568 83.1126 83.8781C82.0418 84.1048 81.1606 83.9342 80.3382 83.3394C80.1272 83.1873 79.9189 83.006 79.7106 82.8006C79.6786 82.8326 79.6492 82.8646 79.6172 82.8966H79.6225ZM204.554 116.175C201.95 116.175 199.082 116.796 195.787 118.071C192.276 119.431 188.265 121.519 185.565 123.394C182.807 125.312 181.688 126.848 181.293 129.27C181.274 129.38 181.258 129.492 181.242 129.606C182.751 128.961 184.625 127.811 186.919 126.406L187.91 125.8C191.285 123.739 194.818 121.674 197.779 120.519C201.213 119.18 203.766 119.154 205.608 119.282C206.882 119.37 208.07 119.559 209.12 119.727C209.878 119.847 210.532 119.951 211.034 119.986C212.062 120.055 212.081 119.853 212.097 119.674C212.148 119.122 211.822 118.29 210.757 117.607C209.408 116.743 207.08 116.196 204.682 116.177C204.639 116.177 204.594 116.177 204.551 116.177L204.554 116.175ZM147.645 89.9272C150.977 90.746 154.296 91.6875 156.823 92.5597C161.335 94.1173 164.112 95.6989 165.568 97.5339C166.847 99.1528 166.729 100.518 165.151 102.407C164.379 103.33 163.223 104.431 162 105.599C160.916 106.634 159.795 107.704 158.804 108.771C156.726 111.011 155.274 113.201 154.23 115.662C153.367 117.697 152.545 120.373 152.999 124.765C153.122 125.963 153.335 127.256 153.597 128.561C153.813 128.123 154.024 127.646 154.238 127.12C154.7 125.992 155.183 124.656 155.693 123.242C156.515 120.967 157.367 118.612 158.329 116.529C159.928 113.073 161.781 110.518 164.163 108.493C165.41 107.432 166.801 106.517 168.032 105.709C169.098 105.01 170.102 104.348 170.772 103.746C172.078 102.572 172.198 101.588 171.968 100.073C171.792 98.9128 171.274 96.6991 169.787 94.9174C168.51 93.3865 166.534 92.2423 163.744 91.4181C161.317 90.7007 158.059 90.1486 153.786 89.7352C151.437 89.5085 149.469 89.3858 147.848 89.3724C147.797 89.5538 147.73 89.7378 147.648 89.9272H147.645ZM94.576 71.1532C96.0794 71.1532 97.3504 72.3294 99.8364 75.4713C101.321 77.349 103.318 80.0348 105.431 82.878C108.13 86.5106 111.19 90.626 113.847 93.9466C118.301 99.5182 121.968 103.284 124.742 105.138C127.546 107.013 129.113 106.725 130.392 106.133C132.04 105.37 133.719 103.687 136.326 101.004C138.983 98.2673 142.75 94.3387 144.788 91.8289C145.095 91.4501 145.356 91.1141 145.578 90.8074C144.529 90.562 143.493 90.3353 142.499 90.1299C141.557 90.5673 140.643 91.2608 139.311 92.3943C138.988 92.669 138.641 92.9704 138.28 93.2798C135.404 95.7682 133.081 97.6913 131.543 97.9206C130.798 98.0326 130.307 97.7419 130.029 97.4805C129.271 96.7657 129.022 95.3335 129.241 92.9757C129.434 90.914 129.845 89.8099 130.758 88.895C131.829 87.8255 133.455 87.3027 138.248 88.0015C139.468 88.1802 140.87 88.4309 142.366 88.7323C143.033 88.4709 143.738 88.3003 144.579 88.1909C145.172 88.1136 145.85 88.0629 146.614 88.0442C146.577 87.8575 146.515 87.6708 146.438 87.4788C145.944 86.2332 144.609 84.4649 143.332 83.3634C142.251 82.4299 141.404 82.1152 138.958 82.5766C136.782 82.9873 132.745 84.1635 128.52 86.1319C126.852 86.9107 125.201 87.7988 123.746 88.5803C121.783 89.6365 120.088 90.5486 118.715 91.0207C115.933 91.9809 114.491 91.0021 112.803 88.8604C111.901 87.7162 110.878 86.1906 109.797 84.5743C108.881 83.2087 107.935 81.7951 107.068 80.6322C106.712 80.1575 106.371 79.7227 106.037 79.3013C104.616 77.4983 103.391 75.9407 102.803 73.1829C102.042 69.5983 102.379 64.304 102.696 61.7382C102.702 61.6875 102.71 61.6395 102.715 61.5889C101.935 61.3995 101.209 60.9728 100.646 60.3273C99.9299 59.5085 99.4893 58.3616 99.0193 57.1454C98.7069 56.3319 98.3838 55.4945 97.9646 54.721C96.9125 52.7766 95.2142 51.251 92.2876 49.6187C89.1153 47.8504 84.445 45.9248 80.3141 44.2578C76.9389 42.8949 73.9989 41.7347 70.8827 40.5078L68.9014 39.7263C64.637 38.0434 60.2631 36.3017 57.7691 35.1442C55.5875 34.1307 54.7997 33.5492 54.6475 32.8398C54.6288 32.7491 54.6155 32.6398 54.6262 32.5197C52.5914 31.8129 50.4125 31.0128 48.1428 30.09C42.4337 27.7722 36.0037 24.6143 32.4469 22.6647C28.9008 20.7203 28.0784 19.9202 27.814 18.1572C27.7072 17.4344 27.6912 16.5622 27.6725 15.5514C27.6538 14.4525 27.6325 13.207 27.4883 11.8121C27.1385 8.4008 26.2172 5.72033 24.8207 4.0667C23.1464 2.07968 20.4655 1.09818 17.4668 1.37823C14.3158 1.67161 10.9753 3.33857 8.30241 5.9497C5.58141 8.60617 3.38111 12.4255 2.26227 16.4262C1.27427 19.9628 1.0473 24.0356 1.63743 27.5962C2.11807 30.5007 3.10607 32.7278 4.57205 34.2134C5.89383 35.5549 7.54672 36.2324 9.48 36.2324C11.5601 36.2324 13.7337 35.4376 15.7685 33.9306C17.9474 32.3197 20.1717 29.7592 22.0596 27.4708C22.3053 27.1721 22.5403 26.8841 22.7672 26.6067C24.2626 24.7797 25.344 23.4595 26.2786 22.9207C27.0183 22.494 27.5951 22.5846 27.9475 22.7367C28.5003 22.9714 28.9088 23.5288 29.0984 24.2996C29.3307 25.2491 29.3121 26.8041 27.9102 28.8284C27.4429 29.5005 26.834 30.21 26.1852 30.9621C25.1945 32.1117 24.073 33.4132 23.2399 34.8641C22.0249 36.9792 21.2479 39.7157 21.1063 42.3775C20.9782 44.7886 21.4428 46.4289 22.6578 47.8638C24.0997 49.5654 26.6765 50.9417 31.013 52.3206C34.212 53.3394 38.4337 54.3849 42.5138 55.3984C44.586 55.9132 46.5459 56.3986 48.2736 56.8574C53.259 58.1803 56.1562 59.2365 58.482 60.0846L59.3739 60.41C61.454 61.1675 63.0962 61.7649 64.5061 62.3997C66.1323 63.1331 67.4034 63.8986 69.091 65.6376C70.6024 67.1979 72.6318 69.753 74.258 72.1507C75.4329 73.879 76.2179 75.2713 76.8481 76.3888C76.9977 76.6555 77.1392 76.9062 77.2754 77.141C77.8281 78.1011 78.2767 78.7866 78.752 79.464C78.9069 78.1438 79.0217 76.8689 79.0724 75.786C79.1926 73.2763 78.9683 72.0894 78.0684 70.4918C77.0324 68.6541 75.3181 66.5817 73.2406 64.6587C70.7599 62.3623 67.7746 60.2873 65.0509 58.9671C63.5449 58.2363 62.0148 57.6762 60.6636 57.1854C59.3018 56.6893 58.1242 56.2573 57.2751 55.7665C55.0961 54.5076 55.1949 52.8807 55.5768 51.4537C56.0494 49.6934 57.1602 47.6931 58.482 46.2288C60.1269 44.4045 62.1002 43.3776 64.5168 43.0896C66.9761 42.7962 70.3193 43.2496 73.2352 44.2738C75.8227 45.1833 78.0604 46.5062 81.2167 50.2802C84.0178 53.6301 87.5532 58.8737 90.3196 63.0691C92.6908 66.6644 93.7509 68.3341 94.042 70.2144C94.0927 70.5371 94.1194 70.8625 94.1221 71.1879C94.2743 71.1666 94.4265 71.1559 94.5733 71.1559L94.576 71.1532ZM134.574 89.0177C132.734 89.0177 132.117 89.4258 131.701 89.8392C131.036 90.5033 130.729 91.3888 130.569 93.0984C130.326 95.7069 130.795 96.371 130.945 96.5124C131.012 96.5764 131.113 96.6377 131.343 96.6031C132.619 96.411 135.386 94.0186 137.404 92.2716C137.768 91.9569 138.117 91.6555 138.443 91.3781C139.234 90.706 139.901 90.1699 140.526 89.7378C139.639 89.5725 138.806 89.4311 138.053 89.3218C136.558 89.1031 135.434 89.015 134.574 89.015V89.0177ZM145.578 89.4338C145.826 89.4925 146.077 89.5485 146.328 89.6072C146.366 89.5298 146.401 89.4578 146.433 89.3858C146.133 89.3965 145.848 89.4125 145.581 89.4338H145.578ZM80.6586 81.8511C80.8188 82.0085 80.9763 82.1472 81.1312 82.2565C81.6519 82.6353 82.1326 82.7233 82.8429 82.5712C83.449 82.4432 84.2394 82.1445 85.9163 80.8509C87.6146 79.5387 89.9057 77.4663 91.2355 75.5753C91.8069 74.7645 92.2208 73.9617 92.4772 73.1696C90.608 74.0497 87.7108 75.77 84.672 78.2371C83.3369 79.3227 81.9643 80.5602 80.6559 81.8511H80.6586ZM66.1217 44.3325C65.6143 44.3325 65.131 44.3592 64.6797 44.4125C62.5702 44.6659 60.9173 45.5247 59.478 47.1196C58.2898 48.4345 57.2911 50.2269 56.8719 51.7951C56.4873 53.2301 56.749 53.9155 57.9506 54.609C58.701 55.0437 59.8278 55.4544 61.1309 55.9292C62.5115 56.4333 64.0736 57.0041 65.641 57.7642C68.5222 59.1618 71.545 61.2635 74.1565 63.6772C76.3328 65.6909 78.1405 67.878 79.2407 69.8357C80.2741 71.6706 80.5491 73.0762 80.4156 75.8474C80.3488 77.2663 80.1833 78.9626 79.9563 80.6696C81.2247 79.4294 82.5465 78.2425 83.8335 77.197C87.4331 74.2738 90.7949 72.3854 92.7389 71.5933C92.7549 71.588 92.7682 71.5826 92.7843 71.5746C92.8056 71.1826 92.7869 70.7958 92.7282 70.4118C92.4799 68.8061 91.4705 67.2245 89.2088 63.7946C86.4611 59.6312 82.955 54.4276 80.1966 51.1283C77.222 47.5731 75.2326 46.3808 72.7973 45.5274C70.605 44.7566 68.1724 44.3271 66.1243 44.3271L66.1217 44.3325ZM145.236 62.501C144.785 62.8584 144.344 63.2585 143.931 63.6932C142.16 65.5469 140.809 68.0113 140.718 69.5556C140.638 70.8892 141.533 71.676 142.395 72.4361C142.475 72.5081 142.555 72.5775 142.633 72.6468C143.599 73.5136 144.299 74.3191 144.577 75.4366C144.753 76.1514 144.74 76.9222 144.726 77.6024C144.721 77.8691 144.716 78.1225 144.726 78.3305C144.75 78.8986 144.854 79.0293 145.223 79.2133C145.981 79.592 146.967 79.5387 148.155 79.0533C149.877 78.3492 152.203 76.6982 154.08 74.8445C156.051 72.8975 157.509 70.7558 158.801 67.9046C160.208 64.8028 161.274 61.1968 161.653 58.2576C162.027 55.3424 161.755 52.822 160.742 49.8295C159.573 46.3728 157.787 43.3003 155.431 40.6945C152.644 37.6113 148.74 34.8561 144.441 32.9411C140.4 31.1408 135.316 29.7779 130.841 29.2925C126.998 28.8764 124.261 29.1725 121.084 30.354C118.08 31.4689 114.686 33.3732 112.64 35.0935C110.771 36.6645 110.25 37.9367 109.986 39.6063C109.89 40.2038 109.826 40.8705 109.756 41.5747C109.615 43.0149 109.457 44.6499 108.982 46.6342C108.226 49.7868 106.704 53.6648 105.863 55.6945C105.762 55.9425 105.663 56.1746 105.569 56.3986C104.969 57.8282 104.576 58.7697 104.28 60.2953C104.528 60.2366 104.774 60.1433 105.006 60.0126C106.013 59.4498 106.835 58.2016 107.706 56.8787C107.871 56.628 108.037 56.3746 108.208 56.1239C108.712 55.3798 109.23 54.6703 109.73 53.9849C110.307 53.1981 110.849 52.4539 111.26 51.8005C112.01 50.6083 112.307 49.7334 112.355 48.5759C112.379 47.9731 112.333 47.2637 112.291 46.5782C112.24 45.7914 112.189 44.9806 112.237 44.2791C112.312 43.1643 112.643 41.7987 114.55 41.1239C115.845 40.6652 117.919 40.4758 121.482 40.4891C124.384 40.4998 128.331 40.6358 130.609 40.9212C132.857 41.2013 133.605 41.6707 134.085 43.0976C134.462 44.2151 134.766 45.9914 135.191 48.8773C135.276 49.4481 135.364 50.0615 135.458 50.6989C135.821 53.198 136.232 56.0332 136.598 57.9402C137.079 60.458 137.431 60.8607 138.489 61.0234C139.209 61.1328 140.243 61.0848 141.34 61.0314C142.534 60.9754 143.768 60.9141 144.79 61.0528C144.833 61.0581 144.878 61.0661 144.921 61.0714C146.184 60.1699 147.53 59.5512 148.814 59.2978C150.75 58.9191 152.353 59.4338 153.325 60.7514C154.353 62.1436 154.537 64.1627 153.802 66.0216C153.074 67.8726 151.351 69.7263 149.965 70.7425C148.71 71.6626 147.645 71.9507 146.614 71.644C145.621 71.3506 144.953 70.6118 144.828 69.673C144.716 68.8355 145.023 67.7953 145.736 66.5817C145.856 66.379 145.984 66.1737 146.115 65.9683C146.55 65.2775 147.004 64.5654 146.959 63.992C146.919 63.4692 146.435 62.8104 145.236 62.4957V62.501ZM146.571 61.5889C147.728 62.1836 148.23 63.1171 148.288 63.8959C148.366 64.9095 147.794 65.8109 147.242 66.6858C147.119 66.8778 146.999 67.0698 146.886 67.2619C146.35 68.174 146.083 68.9902 146.15 69.5049C146.224 70.065 146.708 70.2891 146.991 70.3717C147.399 70.4918 148.016 70.5238 149.172 69.673C150.361 68.8008 151.928 67.1338 152.555 65.5389C153.114 64.1253 152.991 62.5597 152.243 61.5489C151.41 60.4233 150.053 60.418 149.063 60.6127C148.251 60.7727 147.402 61.1088 146.569 61.5915L146.571 61.5889ZM42.8316 60.1353C42.5886 60.1353 42.4898 60.3006 42.2815 60.65C41.7341 61.5702 40.9811 63.5465 40.6366 64.9681C40.3109 66.3097 40.4417 66.8271 40.8316 67.4192C41.2455 68.0433 42.0732 68.8835 43.6754 69.3449C45.3283 69.8223 47.6995 69.8623 49.582 69.841C50.1828 69.8357 50.7676 69.8223 51.315 69.809C52.3511 69.785 53.2323 69.7663 53.9132 69.7983C54.8184 68.8515 55.6969 67.814 56.2283 67.0458C56.6529 66.4324 56.6849 66.2137 56.6662 66.1363C56.6502 66.0697 56.5407 65.8776 55.8732 65.5149C54.9439 65.0108 53.3444 64.392 51.6542 63.7359C50.8985 63.4425 50.1161 63.1385 49.3711 62.8371C48.0119 62.285 46.7542 61.7276 45.7422 61.2795C44.9518 60.9301 44.2709 60.626 43.7448 60.418C43.2829 60.234 43.0159 60.1379 42.8289 60.1379L42.8316 60.1353ZM57.2484 32.0076C58.5488 32.4424 59.7744 32.8371 60.9093 33.2052C61.7638 33.4826 62.5675 33.7413 63.3125 33.9867C64.8079 34.4801 66.0522 34.9202 67.1524 35.3042C68.7973 35.883 69.9855 36.2991 70.9655 36.5418C72.6932 36.9712 73.4275 36.7605 73.7399 36.5098C74.2259 36.1177 74.1912 35.2509 74.1271 34.7708C73.9883 33.7386 73.537 33.0505 72.6585 32.5384C71.569 31.9036 69.593 31.4449 67.091 31.2528C64.637 31.0635 61.8199 31.1355 59.7424 31.4395C58.7197 31.5889 57.8812 31.7943 57.2537 32.0076H57.2484Z" fill="#184F7B" fill-opacity="0.75"/>
</svg>
