<svg width="57" height="46" viewBox="0 0 57 46" fill="none" xmlns="http://www.w3.org/2000/svg">
<path d="M28.25 5.9C29.41 5.9 30.35 6.84 30.35 8C30.35 9.16 29.41 10.1 28.25 10.1C27.09 10.1 26.15 9.16 26.15 8C26.15 6.84 27.09 5.9 28.25 5.9ZM28.25 14.9C31.22 14.9 34.35 16.36 34.35 17V18.1H22.15V17C22.15 16.36 25.28 14.9 28.25 14.9ZM28.25 4C26.04 4 24.25 5.79 24.25 8C24.25 10.21 26.04 12 28.25 12C30.46 12 32.25 10.21 32.25 8C32.25 5.79 30.46 4 28.25 4ZM28.25 13C25.58 13 20.25 14.34 20.25 17V20H36.25V17C36.25 14.34 30.92 13 28.25 13Z" fill="#A83B65"/>
<path d="M14.3806 40V31.2727H17.4318C18.0397 31.2727 18.5412 31.3778 18.936 31.5881C19.3309 31.7955 19.625 32.0753 19.8181 32.4276C20.0113 32.777 20.1079 33.1648 20.1079 33.5909C20.1079 33.9659 20.0412 34.2756 19.9076 34.5199C19.777 34.7642 19.6037 34.9574 19.3877 35.0994C19.1747 35.2415 18.9431 35.3466 18.6931 35.4148V35.5C18.9602 35.517 19.2287 35.6108 19.4985 35.7812C19.7684 35.9517 19.9943 36.196 20.1761 36.5142C20.3579 36.8324 20.4488 37.2216 20.4488 37.6818C20.4488 38.1193 20.3494 38.5128 20.1505 38.8622C19.9517 39.2116 19.6377 39.4886 19.2088 39.6932C18.7798 39.8977 18.2216 40 17.5341 40H14.3806ZM15.4375 39.0625H17.5341C18.2244 39.0625 18.7145 38.929 19.0042 38.6619C19.2968 38.392 19.4431 38.0653 19.4431 37.6818C19.4431 37.3864 19.3679 37.1136 19.2173 36.8636C19.0667 36.6108 18.8522 36.4091 18.5738 36.2585C18.2954 36.1051 17.9659 36.0284 17.5852 36.0284H15.4375V39.0625ZM15.4375 35.108H17.3977C17.7159 35.108 18.0028 35.0455 18.2585 34.9205C18.517 34.7955 18.7216 34.6193 18.8721 34.392C19.0255 34.1648 19.1022 33.8977 19.1022 33.5909C19.1022 33.2074 18.9687 32.8821 18.7017 32.6151C18.4346 32.3452 18.0113 32.2102 17.4318 32.2102H15.4375V35.108ZM25.1081 40.1364C24.5172 40.1364 23.9987 39.9957 23.5527 39.7145C23.1095 39.4332 22.7629 39.0398 22.5129 38.5341C22.2657 38.0284 22.1422 37.4375 22.1422 36.7614C22.1422 36.0795 22.2657 35.4844 22.5129 34.9759C22.7629 34.4673 23.1095 34.0724 23.5527 33.7912C23.9987 33.5099 24.5172 33.3693 25.1081 33.3693C25.699 33.3693 26.216 33.5099 26.6592 33.7912C27.1052 34.0724 27.4518 34.4673 27.699 34.9759C27.949 35.4844 28.074 36.0795 28.074 36.7614C28.074 37.4375 27.949 38.0284 27.699 38.5341C27.4518 39.0398 27.1052 39.4332 26.6592 39.7145C26.216 39.9957 25.699 40.1364 25.1081 40.1364ZM25.1081 39.233C25.5569 39.233 25.9262 39.1179 26.216 38.8878C26.5058 38.6577 26.7203 38.3551 26.8595 37.9801C26.9987 37.6051 27.0683 37.1989 27.0683 36.7614C27.0683 36.3239 26.9987 35.9162 26.8595 35.5384C26.7203 35.1605 26.5058 34.8551 26.216 34.6222C25.9262 34.3892 25.5569 34.2727 25.1081 34.2727C24.6592 34.2727 24.2899 34.3892 24.0001 34.6222C23.7103 34.8551 23.4958 35.1605 23.3566 35.5384C23.2174 35.9162 23.1478 36.3239 23.1478 36.7614C23.1478 37.1989 23.2174 37.6051 23.3566 37.9801C23.4958 38.3551 23.7103 38.6577 24.0001 38.8878C24.2899 39.1179 24.6592 39.233 25.1081 39.233ZM32.6682 40.1364C32.0773 40.1364 31.5588 39.9957 31.1128 39.7145C30.6696 39.4332 30.323 39.0398 30.073 38.5341C29.8259 38.0284 29.7023 37.4375 29.7023 36.7614C29.7023 36.0795 29.8259 35.4844 30.073 34.9759C30.323 34.4673 30.6696 34.0724 31.1128 33.7912C31.5588 33.5099 32.0773 33.3693 32.6682 33.3693C33.2591 33.3693 33.7762 33.5099 34.2194 33.7912C34.6654 34.0724 35.012 34.4673 35.2591 34.9759C35.5091 35.4844 35.6341 36.0795 35.6341 36.7614C35.6341 37.4375 35.5091 38.0284 35.2591 38.5341C35.012 39.0398 34.6654 39.4332 34.2194 39.7145C33.7762 39.9957 33.2591 40.1364 32.6682 40.1364ZM32.6682 39.233C33.1171 39.233 33.4864 39.1179 33.7762 38.8878C34.0659 38.6577 34.2804 38.3551 34.4196 37.9801C34.5588 37.6051 34.6284 37.1989 34.6284 36.7614C34.6284 36.3239 34.5588 35.9162 34.4196 35.5384C34.2804 35.1605 34.0659 34.8551 33.7762 34.6222C33.4864 34.3892 33.1171 34.2727 32.6682 34.2727C32.2194 34.2727 31.85 34.3892 31.5603 34.6222C31.2705 34.8551 31.056 35.1605 30.9168 35.5384C30.7776 35.9162 30.708 36.3239 30.708 36.7614C30.708 37.1989 30.7776 37.6051 30.9168 37.9801C31.056 38.3551 31.2705 38.6577 31.5603 38.8878C31.85 39.1179 32.2194 39.233 32.6682 39.233ZM38.5068 37.6136L38.4897 36.3693H38.6943L41.5579 33.4545H42.8022L39.7511 36.5398H39.6659L38.5068 37.6136ZM37.5693 40V31.2727H38.575V40H37.5693ZM41.7284 40L39.1716 36.7614L39.8875 36.0625L43.0068 40H41.7284Z" fill="#A83B65"/>
</svg>
