<svg width="57" height="46" viewBox="0 0 57 46" fill="none" xmlns="http://www.w3.org/2000/svg">
<path d="M33.34 7.58L26.75 14.17L23.16 10.59L21.75 12L26.75 17L34.75 9L33.34 7.58ZM28.75 2C23.23 2 18.75 6.48 18.75 12C18.75 17.52 23.23 22 28.75 22C34.27 22 38.75 17.52 38.75 12C38.75 6.48 34.27 2 28.75 2ZM28.75 20C24.33 20 20.75 16.42 20.75 12C20.75 7.58 24.33 4 28.75 4C33.17 4 36.75 7.58 36.75 12C36.75 16.42 33.17 20 28.75 20Z" fill="#3A3541" fill-opacity="0.68"/>
<path d="M11.6413 34H10.5844C10.5219 33.696 10.4126 33.429 10.2563 33.1989C10.1029 32.9688 9.91541 32.7756 9.69382 32.6193C9.47507 32.4602 9.23217 32.3409 8.96513 32.2614C8.69808 32.1818 8.41967 32.142 8.1299 32.142C7.60149 32.142 7.1228 32.2756 6.69382 32.5426C6.26768 32.8097 5.9282 33.2031 5.67535 33.723C5.42535 34.2429 5.30035 34.8807 5.30035 35.6364C5.30035 36.392 5.42535 37.0298 5.67535 37.5497C5.9282 38.0696 6.26768 38.4631 6.69382 38.7301C7.1228 38.9972 7.60149 39.1307 8.1299 39.1307C8.41967 39.1307 8.69808 39.0909 8.96513 39.0114C9.23217 38.9318 9.47507 38.8139 9.69382 38.6577C9.91541 38.4986 10.1029 38.304 10.2563 38.0739C10.4126 37.8409 10.5219 37.5739 10.5844 37.2727H11.6413C11.5617 37.7187 11.4168 38.1179 11.2066 38.4702C10.9964 38.8224 10.735 39.1222 10.4225 39.3693C10.11 39.6136 9.75916 39.7997 9.36996 39.9276C8.98359 40.0554 8.57024 40.1193 8.1299 40.1193C7.38558 40.1193 6.72365 39.9375 6.1441 39.5739C5.56456 39.2102 5.10859 38.6932 4.77621 38.0227C4.44382 37.3523 4.27763 36.5568 4.27763 35.6364C4.27763 34.7159 4.44382 33.9205 4.77621 33.25C5.10859 32.5795 5.56456 32.0625 6.1441 31.6989C6.72365 31.3352 7.38558 31.1534 8.1299 31.1534C8.57024 31.1534 8.98359 31.2173 9.36996 31.3452C9.75916 31.473 10.11 31.6605 10.4225 31.9077C10.735 32.152 10.9964 32.4503 11.2066 32.8026C11.4168 33.152 11.5617 33.5511 11.6413 34ZM16.2717 40.1364C15.6808 40.1364 15.1624 39.9957 14.7163 39.7145C14.2732 39.4332 13.9266 39.0398 13.6766 38.5341C13.4294 38.0284 13.3058 37.4375 13.3058 36.7614C13.3058 36.0795 13.4294 35.4844 13.6766 34.9759C13.9266 34.4673 14.2732 34.0724 14.7163 33.7912C15.1624 33.5099 15.6808 33.3693 16.2717 33.3693C16.8626 33.3693 17.3797 33.5099 17.8229 33.7912C18.2689 34.0724 18.6155 34.4673 18.8626 34.9759C19.1126 35.4844 19.2376 36.0795 19.2376 36.7614C19.2376 37.4375 19.1126 38.0284 18.8626 38.5341C18.6155 39.0398 18.2689 39.4332 17.8229 39.7145C17.3797 39.9957 16.8626 40.1364 16.2717 40.1364ZM16.2717 39.233C16.7206 39.233 17.0899 39.1179 17.3797 38.8878C17.6695 38.6577 17.8839 38.3551 18.0232 37.9801C18.1624 37.6051 18.232 37.1989 18.232 36.7614C18.232 36.3239 18.1624 35.9162 18.0232 35.5384C17.8839 35.1605 17.6695 34.8551 17.3797 34.6222C17.0899 34.3892 16.7206 34.2727 16.2717 34.2727C15.8229 34.2727 15.4536 34.3892 15.1638 34.6222C14.874 34.8551 14.6595 35.1605 14.5203 35.5384C14.3811 35.9162 14.3115 36.3239 14.3115 36.7614C14.3115 37.1989 14.3811 37.6051 14.5203 37.9801C14.6595 38.3551 14.874 38.6577 15.1638 38.8878C15.4536 39.1179 15.8229 39.233 16.2717 39.233ZM22.1785 36.0625V40H21.1728V33.4545H22.1444V34.4773H22.2296C22.383 34.1449 22.616 33.8778 22.9285 33.6761C23.241 33.4716 23.6444 33.3693 24.1387 33.3693C24.5819 33.3693 24.9697 33.4602 25.3021 33.642C25.6344 33.821 25.893 34.0938 26.0776 34.4602C26.2623 34.8239 26.3546 35.2841 26.3546 35.8409V40H25.3489V35.9091C25.3489 35.3949 25.2154 34.9943 24.9484 34.7074C24.6813 34.4176 24.3148 34.2727 23.8489 34.2727C23.5279 34.2727 23.241 34.3423 22.9881 34.4815C22.7381 34.6207 22.5407 34.8239 22.3958 35.0909C22.2509 35.358 22.1785 35.6818 22.1785 36.0625ZM29.598 36.0625V40H28.5923V33.4545H29.5639V34.4773H29.6491C29.8026 34.1449 30.0355 33.8778 30.348 33.6761C30.6605 33.4716 31.0639 33.3693 31.5582 33.3693C32.0014 33.3693 32.3892 33.4602 32.7216 33.642C33.054 33.821 33.3125 34.0938 33.4972 34.4602C33.6818 34.8239 33.7741 35.2841 33.7741 35.8409V40H32.7685V35.9091C32.7685 35.3949 32.6349 34.9943 32.3679 34.7074C32.1009 34.4176 31.7344 34.2727 31.2685 34.2727C30.9474 34.2727 30.6605 34.3423 30.4077 34.4815C30.1577 34.6207 29.9602 34.8239 29.8153 35.0909C29.6705 35.358 29.598 35.6818 29.598 36.0625ZM38.7562 40.1364C38.1255 40.1364 37.5815 39.9972 37.1241 39.7188C36.6695 39.4375 36.3187 39.0455 36.0715 38.5426C35.8272 38.0369 35.705 37.4489 35.705 36.7784C35.705 36.108 35.8272 35.517 36.0715 35.0057C36.3187 34.4915 36.6624 34.0909 37.1028 33.804C37.546 33.5142 38.063 33.3693 38.6539 33.3693C38.9948 33.3693 39.3315 33.4261 39.6639 33.5398C39.9962 33.6534 40.2988 33.8381 40.5715 34.0938C40.8442 34.3466 41.0616 34.6818 41.2235 35.0994C41.3854 35.517 41.4664 36.0312 41.4664 36.642V37.0682H36.421V36.1989H40.4437C40.4437 35.8295 40.3698 35.5 40.2221 35.2102C40.0772 34.9205 39.8698 34.6918 39.5999 34.5241C39.3329 34.3565 39.0175 34.2727 38.6539 34.2727C38.2533 34.2727 37.9067 34.3722 37.6141 34.571C37.3244 34.767 37.1014 35.0227 36.9451 35.3381C36.7889 35.6534 36.7107 35.9915 36.7107 36.3523V36.9318C36.7107 37.4261 36.796 37.8452 36.9664 38.1889C37.1397 38.5298 37.3798 38.7898 37.6866 38.9688C37.9934 39.1449 38.3499 39.233 38.7562 39.233C39.0204 39.233 39.259 39.196 39.4721 39.1222C39.688 39.0455 39.8741 38.9318 40.0303 38.7812C40.1866 38.6278 40.3073 38.4375 40.3925 38.2102L41.3641 38.483C41.2619 38.8125 41.09 39.1023 40.8485 39.3523C40.607 39.5994 40.3087 39.7926 39.9536 39.9318C39.5985 40.0682 39.1994 40.1364 38.7562 40.1364ZM46.0553 40.1364C45.4417 40.1364 44.9133 39.9915 44.4701 39.7017C44.0269 39.4119 43.686 39.0128 43.4474 38.5043C43.2087 37.9957 43.0894 37.4148 43.0894 36.7614C43.0894 36.0966 43.2116 35.5099 43.4559 35.0014C43.7031 34.4901 44.0468 34.0909 44.4871 33.804C44.9303 33.5142 45.4474 33.3693 46.0383 33.3693C46.4985 33.3693 46.9133 33.4545 47.2826 33.625C47.6519 33.7955 47.9545 34.0341 48.1903 34.3409C48.4261 34.6477 48.5724 35.0057 48.6292 35.4148H47.6235C47.5468 35.1165 47.3763 34.8523 47.1121 34.6222C46.8508 34.3892 46.4985 34.2727 46.0553 34.2727C45.6633 34.2727 45.3195 34.375 45.0241 34.5795C44.7315 34.7812 44.5028 35.0668 44.338 35.4361C44.1761 35.8026 44.0951 36.233 44.0951 36.7273C44.0951 37.233 44.1746 37.6733 44.3337 38.0483C44.4957 38.4233 44.7229 38.7145 45.0156 38.9219C45.311 39.1293 45.6576 39.233 46.0553 39.233C46.3167 39.233 46.5539 39.1875 46.767 39.0966C46.98 39.0057 47.1604 38.875 47.3082 38.7045C47.4559 38.5341 47.561 38.3295 47.6235 38.0909H48.6292C48.5724 38.4773 48.4317 38.8253 48.2073 39.1349C47.9857 39.4418 47.6917 39.6861 47.3252 39.8679C46.9616 40.0469 46.5383 40.1364 46.0553 40.1364ZM53.346 33.4545V34.3068H49.9539V33.4545H53.346ZM50.9425 31.8864H51.9482V38.125C51.9482 38.4091 51.9894 38.6222 52.0718 38.7642C52.157 38.9034 52.265 38.9972 52.3957 39.0455C52.5292 39.0909 52.6698 39.1136 52.8175 39.1136C52.9283 39.1136 53.0192 39.108 53.0903 39.0966C53.1613 39.0824 53.2181 39.071 53.2607 39.0625L53.4653 39.9659C53.3971 39.9915 53.3019 40.017 53.1798 40.0426C53.0576 40.071 52.9028 40.0852 52.7153 40.0852C52.4312 40.0852 52.1528 40.0241 51.88 39.902C51.6102 39.7798 51.3857 39.5938 51.2067 39.3438C51.0306 39.0938 50.9425 38.7784 50.9425 38.3977V31.8864Z" fill="#3A3541" fill-opacity="0.68"/>
</svg>
