<svg width="57" height="46" viewBox="0 0 57 46" fill="none" xmlns="http://www.w3.org/2000/svg">
<path d="M38.25 9.24L31.06 8.62L28.25 2L25.44 8.63L18.25 9.24L23.71 13.97L22.07 21L28.25 17.27L34.43 21L32.8 13.97L38.25 9.24ZM28.25 15.4L24.49 17.67L25.49 13.39L22.17 10.51L26.55 10.13L28.25 6.1L29.96 10.14L34.34 10.52L31.02 13.4L32.02 17.68L28.25 15.4Z" fill="#3A3541" fill-opacity="0.68"/>
<path d="M11.4523 40H8.75916V31.2727H11.5717C12.4183 31.2727 13.1427 31.4474 13.745 31.7969C14.3472 32.1435 14.8089 32.642 15.1299 33.2926C15.4509 33.9403 15.6114 34.7159 15.6114 35.6193C15.6114 36.5284 15.4495 37.3111 15.1256 37.9673C14.8018 38.6207 14.3302 39.1236 13.7109 39.4759C13.0915 39.8253 12.3387 40 11.4523 40ZM9.81598 39.0625H11.3842C12.1058 39.0625 12.7038 38.9233 13.1782 38.6449C13.6526 38.3665 14.0063 37.9702 14.2393 37.456C14.4722 36.9418 14.5887 36.3295 14.5887 35.6193C14.5887 34.9148 14.4736 34.3082 14.2435 33.7997C14.0134 33.2884 13.6697 32.8963 13.2123 32.6236C12.7549 32.348 12.1853 32.2102 11.5035 32.2102H9.81598V39.0625ZM20.3921 40.1364C19.7614 40.1364 19.2174 39.9972 18.76 39.7188C18.3055 39.4375 17.9546 39.0455 17.7075 38.5426C17.4631 38.0369 17.341 37.4489 17.341 36.7784C17.341 36.108 17.4631 35.517 17.7075 35.0057C17.9546 34.4915 18.2984 34.0909 18.7387 33.804C19.1819 33.5142 19.6989 33.3693 20.2898 33.3693C20.6308 33.3693 20.9674 33.4261 21.2998 33.5398C21.6322 33.6534 21.9347 33.8381 22.2075 34.0938C22.4802 34.3466 22.6975 34.6818 22.8594 35.0994C23.0214 35.517 23.1023 36.0312 23.1023 36.642V37.0682H18.0569V36.1989H22.0796C22.0796 35.8295 22.0058 35.5 21.858 35.2102C21.7131 34.9205 21.5058 34.6918 21.2359 34.5241C20.9688 34.3565 20.6535 34.2727 20.2898 34.2727C19.8893 34.2727 19.5427 34.3722 19.2501 34.571C18.9603 34.767 18.7373 35.0227 18.581 35.3381C18.4248 35.6534 18.3467 35.9915 18.3467 36.3523V36.9318C18.3467 37.4261 18.4319 37.8452 18.6023 38.1889C18.7756 38.5298 19.0157 38.7898 19.3225 38.9688C19.6293 39.1449 19.9859 39.233 20.3921 39.233C20.6563 39.233 20.895 39.196 21.108 39.1222C21.3239 39.0455 21.51 38.9318 21.6663 38.7812C21.8225 38.6278 21.9433 38.4375 22.0285 38.2102L23.0001 38.483C22.8978 38.8125 22.7259 39.1023 22.4844 39.3523C22.243 39.5994 21.9447 39.7926 21.5896 39.9318C21.2344 40.0682 20.8353 40.1364 20.3921 40.1364ZM27.8788 33.4545V34.3068H24.4867V33.4545H27.8788ZM25.4754 31.8864H26.481V38.125C26.481 38.4091 26.5222 38.6222 26.6046 38.7642C26.6898 38.9034 26.7978 38.9972 26.9285 39.0455C27.062 39.0909 27.2026 39.1136 27.3504 39.1136C27.4611 39.1136 27.5521 39.108 27.6231 39.0966C27.6941 39.0824 27.7509 39.071 27.7935 39.0625L27.9981 39.9659C27.9299 39.9915 27.8347 40.017 27.7126 40.0426C27.5904 40.071 27.4356 40.0852 27.2481 40.0852C26.964 40.0852 26.6856 40.0241 26.4129 39.902C26.143 39.7798 25.9185 39.5938 25.7396 39.3438C25.5634 39.0938 25.4754 38.7784 25.4754 38.3977V31.8864ZM31.7177 40.1534C31.3029 40.1534 30.9265 40.0753 30.5884 39.919C30.2504 39.7599 29.9819 39.5312 29.783 39.233C29.5842 38.9318 29.4847 38.5682 29.4847 38.142C29.4847 37.767 29.5586 37.4631 29.7063 37.2301C29.854 36.9943 30.0515 36.8097 30.2987 36.6761C30.5458 36.5426 30.8185 36.4432 31.1168 36.3778C31.418 36.3097 31.7205 36.2557 32.0245 36.2159C32.4222 36.1648 32.7447 36.1264 32.9918 36.1009C33.2418 36.0724 33.4237 36.0256 33.5373 35.9602C33.6538 35.8949 33.712 35.7812 33.712 35.6193V35.5852C33.712 35.1648 33.5969 34.8381 33.3668 34.6051C33.1396 34.3722 32.7944 34.2557 32.3313 34.2557C31.8512 34.2557 31.4748 34.3608 31.2021 34.571C30.9293 34.7812 30.7376 35.0057 30.6268 35.2443L29.6722 34.9034C29.8427 34.5057 30.07 34.196 30.354 33.9744C30.641 33.75 30.9535 33.5937 31.2915 33.5057C31.6325 33.4148 31.9677 33.3693 32.2972 33.3693C32.5075 33.3693 32.7489 33.3949 33.0217 33.446C33.2972 33.4943 33.5629 33.5952 33.8185 33.7486C34.0771 33.902 34.2915 34.1335 34.462 34.4432C34.6325 34.7528 34.7177 35.1676 34.7177 35.6875V40H33.712V39.1136H33.6609C33.5927 39.2557 33.479 39.4077 33.32 39.5696C33.1609 39.7315 32.9492 39.8693 32.685 39.983C32.4208 40.0966 32.0984 40.1534 31.7177 40.1534ZM31.8711 39.25C32.2688 39.25 32.604 39.1719 32.8768 39.0156C33.1523 38.8594 33.3597 38.6577 33.4989 38.4105C33.641 38.1634 33.712 37.9034 33.712 37.6307V36.7102C33.6694 36.7614 33.5756 36.8082 33.4308 36.8509C33.2887 36.8906 33.1239 36.9261 32.9364 36.9574C32.7518 36.9858 32.5714 37.0114 32.3952 37.0341C32.2219 37.054 32.0813 37.071 31.9734 37.0852C31.712 37.1193 31.4677 37.1747 31.2404 37.2514C31.016 37.3253 30.8342 37.4375 30.695 37.5881C30.5586 37.7358 30.4904 37.9375 30.4904 38.1932C30.4904 38.5426 30.6197 38.8068 30.8782 38.9858C31.1396 39.1619 31.4705 39.25 31.8711 39.25ZM36.9533 40V33.4545H37.959V40H36.9533ZM37.4646 32.3636C37.2686 32.3636 37.0996 32.2969 36.9575 32.1634C36.8183 32.0298 36.7487 31.8693 36.7487 31.6818C36.7487 31.4943 36.8183 31.3338 36.9575 31.2003C37.0996 31.0668 37.2686 31 37.4646 31C37.6607 31 37.8283 31.0668 37.9675 31.2003C38.1095 31.3338 38.1805 31.4943 38.1805 31.6818C38.1805 31.8693 38.1095 32.0298 37.9675 32.1634C37.8283 32.2969 37.6607 32.3636 37.4646 32.3636ZM41.2066 31.2727V40H40.2009V31.2727H41.2066ZM48.0849 34.9205L47.1815 35.1761C47.1247 35.0256 47.0409 34.8793 46.9301 34.7372C46.8222 34.5923 46.6744 34.473 46.4869 34.3793C46.2994 34.2855 46.0594 34.2386 45.7668 34.2386C45.3662 34.2386 45.0324 34.331 44.7653 34.5156C44.5011 34.6974 44.369 34.929 44.369 35.2102C44.369 35.4602 44.4599 35.6577 44.6418 35.8026C44.8236 35.9474 45.1077 36.0682 45.494 36.1648L46.4656 36.4034C47.0509 36.5455 47.4869 36.7628 47.7739 37.0554C48.0608 37.3452 48.2043 37.7187 48.2043 38.1761C48.2043 38.5511 48.0963 38.8864 47.8804 39.1818C47.6673 39.4773 47.369 39.7102 46.9855 39.8807C46.602 40.0511 46.156 40.1364 45.6474 40.1364C44.9798 40.1364 44.4273 39.9915 43.9898 39.7017C43.5523 39.4119 43.2753 38.9886 43.1588 38.4318L44.1134 38.1932C44.2043 38.5455 44.3761 38.8097 44.629 38.9858C44.8847 39.1619 45.2185 39.25 45.6304 39.25C46.0991 39.25 46.4713 39.1506 46.7469 38.9517C47.0253 38.75 47.1645 38.5085 47.1645 38.2273C47.1645 38 47.0849 37.8097 46.9259 37.6562C46.7668 37.5 46.5224 37.3835 46.1929 37.3068L45.102 37.0511C44.5026 36.9091 44.0622 36.6889 43.781 36.3906C43.5026 36.0895 43.3634 35.7131 43.3634 35.2614C43.3634 34.892 43.467 34.5653 43.6744 34.2812C43.8847 33.9972 44.1702 33.7741 44.531 33.6122C44.8946 33.4503 45.3065 33.3693 45.7668 33.3693C46.4145 33.3693 46.923 33.5114 47.2923 33.7955C47.6645 34.0795 47.9287 34.4545 48.0849 34.9205Z" fill="#3A3541" fill-opacity="0.68"/>
</svg>
