<svg width="57" height="46" viewBox="0 0 57 46" fill="none" xmlns="http://www.w3.org/2000/svg">
<path d="M22.75 10C21.65 10 20.75 10.9 20.75 12C20.75 13.1 21.65 14 22.75 14C23.85 14 24.75 13.1 24.75 12C24.75 10.9 23.85 10 22.75 10ZM34.75 10C33.65 10 32.75 10.9 32.75 12C32.75 13.1 33.65 14 34.75 14C35.85 14 36.75 13.1 36.75 12C36.75 10.9 35.85 10 34.75 10ZM28.75 10C27.65 10 26.75 10.9 26.75 12C26.75 13.1 27.65 14 28.75 14C29.85 14 30.75 13.1 30.75 12C30.75 10.9 29.85 10 28.75 10Z" fill="#3A3541" fill-opacity="0.68"/>
<path d="M14.6638 31.2727H15.9252L18.8911 38.517H18.9934L21.9593 31.2727H23.2207V40H22.232V33.3693H22.1468L19.4195 40H18.465L15.7377 33.3693H15.6525V40H14.6638V31.2727ZM28.2624 40.1364C27.6714 40.1364 27.153 39.9957 26.707 39.7145C26.2638 39.4332 25.9172 39.0398 25.6672 38.5341C25.42 38.0284 25.2964 37.4375 25.2964 36.7614C25.2964 36.0795 25.42 35.4844 25.6672 34.9759C25.9172 34.4673 26.2638 34.0724 26.707 33.7912C27.153 33.5099 27.6714 33.3693 28.2624 33.3693C28.8533 33.3693 29.3703 33.5099 29.8135 33.7912C30.2595 34.0724 30.6061 34.4673 30.8533 34.9759C31.1033 35.4844 31.2283 36.0795 31.2283 36.7614C31.2283 37.4375 31.1033 38.0284 30.8533 38.5341C30.6061 39.0398 30.2595 39.4332 29.8135 39.7145C29.3703 39.9957 28.8533 40.1364 28.2624 40.1364ZM28.2624 39.233C28.7112 39.233 29.0805 39.1179 29.3703 38.8878C29.6601 38.6577 29.8746 38.3551 30.0138 37.9801C30.153 37.6051 30.2226 37.1989 30.2226 36.7614C30.2226 36.3239 30.153 35.9162 30.0138 35.5384C29.8746 35.1605 29.6601 34.8551 29.3703 34.6222C29.0805 34.3892 28.7112 34.2727 28.2624 34.2727C27.8135 34.2727 27.4442 34.3892 27.1544 34.6222C26.8646 34.8551 26.6501 35.1605 26.5109 35.5384C26.3717 35.9162 26.3021 36.3239 26.3021 36.7614C26.3021 37.1989 26.3717 37.6051 26.5109 37.9801C26.6501 38.3551 26.8646 38.6577 27.1544 38.8878C27.4442 39.1179 27.8135 39.233 28.2624 39.233ZM33.1634 40V33.4545H34.135V34.4432H34.2032C34.3225 34.1193 34.5384 33.8565 34.8509 33.6548C35.1634 33.4531 35.5157 33.3523 35.9077 33.3523C35.9816 33.3523 36.0739 33.3537 36.1847 33.3565C36.2955 33.3594 36.3793 33.3636 36.4361 33.3693V34.392C36.4021 34.3835 36.3239 34.3707 36.2018 34.3537C36.0825 34.3338 35.956 34.3239 35.8225 34.3239C35.5043 34.3239 35.2202 34.3906 34.9702 34.5241C34.7231 34.6548 34.5271 34.8366 34.3822 35.0696C34.2401 35.2997 34.1691 35.5625 34.1691 35.858V40H33.1634ZM40.5734 40.1364C39.9427 40.1364 39.3986 39.9972 38.9413 39.7188C38.4867 39.4375 38.1359 39.0455 37.8887 38.5426C37.6444 38.0369 37.5222 37.4489 37.5222 36.7784C37.5222 36.108 37.6444 35.517 37.8887 35.0057C38.1359 34.4915 38.4796 34.0909 38.92 33.804C39.3631 33.5142 39.8802 33.3693 40.4711 33.3693C40.812 33.3693 41.1486 33.4261 41.481 33.5398C41.8134 33.6534 42.116 33.8381 42.3887 34.0938C42.6614 34.3466 42.8788 34.6818 43.0407 35.0994C43.2026 35.517 43.2836 36.0312 43.2836 36.642V37.0682H38.2381V36.1989H42.2609C42.2609 35.8295 42.187 35.5 42.0393 35.2102C41.8944 34.9205 41.687 34.6918 41.4171 34.5241C41.1501 34.3565 40.8347 34.2727 40.4711 34.2727C40.0705 34.2727 39.7239 34.3722 39.4313 34.571C39.1415 34.767 38.9185 35.0227 38.7623 35.3381C38.606 35.6534 38.5279 35.9915 38.5279 36.3523V36.9318C38.5279 37.4261 38.6131 37.8452 38.7836 38.1889C38.9569 38.5298 39.1969 38.7898 39.5038 38.9688C39.8106 39.1449 40.1671 39.233 40.5734 39.233C40.8376 39.233 41.0762 39.196 41.2893 39.1222C41.5052 39.0455 41.6913 38.9318 41.8475 38.7812C42.0038 38.6278 42.1245 38.4375 42.2097 38.2102L43.1813 38.483C43.079 38.8125 42.9072 39.1023 42.6657 39.3523C42.4242 39.5994 42.1259 39.7926 41.7708 39.9318C41.4157 40.0682 41.0165 40.1364 40.5734 40.1364Z" fill="#3A3541" fill-opacity="0.68"/>
</svg>
